<?xml version="1.0" encoding="utf-8" standalone="no"?>
<!DOCTYPE svg PUBLIC "-//W3C//DTD SVG 1.1//EN"
  "http://www.w3.org/Graphics/SVG/1.1/DTD/svg11.dtd">
<svg xmlns:xlink="http://www.w3.org/1999/xlink" width="432pt" height="396pt" viewBox="0 0 432 396" xmlns="http://www.w3.org/2000/svg" version="1.1">
 <metadata>
  <rdf:RDF xmlns:dc="http://purl.org/dc/elements/1.1/" xmlns:cc="http://creativecommons.org/ns#" xmlns:rdf="http://www.w3.org/1999/02/22-rdf-syntax-ns#">
   <cc:Work>
    <dc:type rdf:resource="http://purl.org/dc/dcmitype/StillImage"/>
    <dc:date>2026-06-05T10:57:40.251849</dc:date>
    <dc:format>image/svg+xml</dc:format>
    <dc:creator>
     <cc:Agent>
      <dc:title>Matplotlib v3.10.9, https://matplotlib.org/</dc:title>
     </cc:Agent>
    </dc:creator>
   </cc:Work>
  </rdf:RDF>
 </metadata>
 <defs>
  <style type="text/css">*{stroke-linejoin: round; stroke-linecap: butt}</style>
 </defs>
 <g id="figure_1">
  <g id="patch_1">
   <path d="M 0 396 
L 432 396 
L 432 0 
L 0 0 
z
" style="fill: #ffffff"/>
  </g>
  <g id="axes_1">
   <g id="patch_2">
    <path d="M 64.346 354.04 
L 388.554 354.04 
L 388.554 29.832 
L 64.346 29.832 
z
" style="fill: #ffffff"/>
   </g>
   <g id="matplotlib.axis_1">
    <g id="xtick_1">
     <g id="line2d_1">
      <path d="M 64.346 354.04 
L 64.346 29.832 
" clip-path="url(#pe578deee9c)" style="fill: none; stroke: #b0b0b0; stroke-opacity: 0.3; stroke-width: 0.8; stroke-linecap: square"/>
     </g>
     <g id="line2d_2">
      <defs>
       <path id="mad189d2da4" d="M 0 0 
L 0 3.5 
" style="stroke: #000000; stroke-width: 0.8"/>
      </defs>
      <g>
       <use xlink:href="#mad189d2da4" x="64.346" y="354.04" style="stroke: #000000; stroke-width: 0.8"/>
      </g>
     </g>
     <g id="text_1">
      <!-- −3 -->
      <g transform="translate(56.974906 368.638437) scale(0.1 -0.1)">
       <defs>
        <path id="DejaVuSans-2212" d="M 678 2272 
L 4684 2272 
L 4684 1741 
L 678 1741 
L 678 2272 
z
" transform="scale(0.015625)"/>
        <path id="DejaVuSans-33" d="M 2597 2516 
Q 3050 2419 3304 2112 
Q 3559 1806 3559 1356 
Q 3559 666 3084 287 
Q 2609 -91 1734 -91 
Q 1441 -91 1130 -33 
Q 819 25 488 141 
L 488 750 
Q 750 597 1062 519 
Q 1375 441 1716 441 
Q 2309 441 2620 675 
Q 2931 909 2931 1356 
Q 2931 1769 2642 2001 
Q 2353 2234 1838 2234 
L 1294 2234 
L 1294 2753 
L 1863 2753 
Q 2328 2753 2575 2939 
Q 2822 3125 2822 3475 
Q 2822 3834 2567 4026 
Q 2313 4219 1838 4219 
Q 1578 4219 1281 4162 
Q 984 4106 628 3988 
L 628 4550 
Q 988 4650 1302 4700 
Q 1616 4750 1894 4750 
Q 2613 4750 3031 4423 
Q 3450 4097 3450 3541 
Q 3450 3153 3228 2886 
Q 3006 2619 2597 2516 
z
" transform="scale(0.015625)"/>
       </defs>
       <use xlink:href="#DejaVuSans-2212"/>
       <use xlink:href="#DejaVuSans-33" transform="translate(83.789062 0)"/>
      </g>
     </g>
    </g>
    <g id="xtick_2">
     <g id="line2d_3">
      <path d="M 118.380667 354.04 
L 118.380667 29.832 
" clip-path="url(#pe578deee9c)" style="fill: none; stroke: #b0b0b0; stroke-opacity: 0.3; stroke-width: 0.8; stroke-linecap: square"/>
     </g>
     <g id="line2d_4">
      <g>
       <use xlink:href="#mad189d2da4" x="118.380667" y="354.04" style="stroke: #000000; stroke-width: 0.8"/>
      </g>
     </g>
     <g id="text_2">
      <!-- −2 -->
      <g transform="translate(111.009573 368.638437) scale(0.1 -0.1)">
       <defs>
        <path id="DejaVuSans-32" d="M 1228 531 
L 3431 531 
L 3431 0 
L 469 0 
L 469 531 
Q 828 903 1448 1529 
Q 2069 2156 2228 2338 
Q 2531 2678 2651 2914 
Q 2772 3150 2772 3378 
Q 2772 3750 2511 3984 
Q 2250 4219 1831 4219 
Q 1534 4219 1204 4116 
Q 875 4013 500 3803 
L 500 4441 
Q 881 4594 1212 4672 
Q 1544 4750 1819 4750 
Q 2544 4750 2975 4387 
Q 3406 4025 3406 3419 
Q 3406 3131 3298 2873 
Q 3191 2616 2906 2266 
Q 2828 2175 2409 1742 
Q 1991 1309 1228 531 
z
" transform="scale(0.015625)"/>
       </defs>
       <use xlink:href="#DejaVuSans-2212"/>
       <use xlink:href="#DejaVuSans-32" transform="translate(83.789062 0)"/>
      </g>
     </g>
    </g>
    <g id="xtick_3">
     <g id="line2d_5">
      <path d="M 172.415333 354.04 
L 172.415333 29.832 
" clip-path="url(#pe578deee9c)" style="fill: none; stroke: #b0b0b0; stroke-opacity: 0.3; stroke-width: 0.8; stroke-linecap: square"/>
     </g>
     <g id="line2d_6">
      <g>
       <use xlink:href="#mad189d2da4" x="172.415333" y="354.04" style="stroke: #000000; stroke-width: 0.8"/>
      </g>
     </g>
     <g id="text_3">
      <!-- −1 -->
      <g transform="translate(165.04424 368.638437) scale(0.1 -0.1)">
       <defs>
        <path id="DejaVuSans-31" d="M 794 531 
L 1825 531 
L 1825 4091 
L 703 3866 
L 703 4441 
L 1819 4666 
L 2450 4666 
L 2450 531 
L 3481 531 
L 3481 0 
L 794 0 
L 794 531 
z
" transform="scale(0.015625)"/>
       </defs>
       <use xlink:href="#DejaVuSans-2212"/>
       <use xlink:href="#DejaVuSans-31" transform="translate(83.789062 0)"/>
      </g>
     </g>
    </g>
    <g id="xtick_4">
     <g id="line2d_7">
      <path d="M 226.45 354.04 
L 226.45 29.832 
" clip-path="url(#pe578deee9c)" style="fill: none; stroke: #b0b0b0; stroke-opacity: 0.3; stroke-width: 0.8; stroke-linecap: square"/>
     </g>
     <g id="line2d_8">
      <g>
       <use xlink:href="#mad189d2da4" x="226.45" y="354.04" style="stroke: #000000; stroke-width: 0.8"/>
      </g>
     </g>
     <g id="text_4">
      <!-- 0 -->
      <g transform="translate(223.26875 368.638437) scale(0.1 -0.1)">
       <defs>
        <path id="DejaVuSans-30" d="M 2034 4250 
Q 1547 4250 1301 3770 
Q 1056 3291 1056 2328 
Q 1056 1369 1301 889 
Q 1547 409 2034 409 
Q 2525 409 2770 889 
Q 3016 1369 3016 2328 
Q 3016 3291 2770 3770 
Q 2525 4250 2034 4250 
z
M 2034 4750 
Q 2819 4750 3233 4129 
Q 3647 3509 3647 2328 
Q 3647 1150 3233 529 
Q 2819 -91 2034 -91 
Q 1250 -91 836 529 
Q 422 1150 422 2328 
Q 422 3509 836 4129 
Q 1250 4750 2034 4750 
z
" transform="scale(0.015625)"/>
       </defs>
       <use xlink:href="#DejaVuSans-30"/>
      </g>
     </g>
    </g>
    <g id="xtick_5">
     <g id="line2d_9">
      <path d="M 280.484667 354.04 
L 280.484667 29.832 
" clip-path="url(#pe578deee9c)" style="fill: none; stroke: #b0b0b0; stroke-opacity: 0.3; stroke-width: 0.8; stroke-linecap: square"/>
     </g>
     <g id="line2d_10">
      <g>
       <use xlink:href="#mad189d2da4" x="280.484667" y="354.04" style="stroke: #000000; stroke-width: 0.8"/>
      </g>
     </g>
     <g id="text_5">
      <!-- 1 -->
      <g transform="translate(277.303417 368.638437) scale(0.1 -0.1)">
       <use xlink:href="#DejaVuSans-31"/>
      </g>
     </g>
    </g>
    <g id="xtick_6">
     <g id="line2d_11">
      <path d="M 334.519333 354.04 
L 334.519333 29.832 
" clip-path="url(#pe578deee9c)" style="fill: none; stroke: #b0b0b0; stroke-opacity: 0.3; stroke-width: 0.8; stroke-linecap: square"/>
     </g>
     <g id="line2d_12">
      <g>
       <use xlink:href="#mad189d2da4" x="334.519333" y="354.04" style="stroke: #000000; stroke-width: 0.8"/>
      </g>
     </g>
     <g id="text_6">
      <!-- 2 -->
      <g transform="translate(331.338083 368.638437) scale(0.1 -0.1)">
       <use xlink:href="#DejaVuSans-32"/>
      </g>
     </g>
    </g>
    <g id="xtick_7">
     <g id="line2d_13">
      <path d="M 388.554 354.04 
L 388.554 29.832 
" clip-path="url(#pe578deee9c)" style="fill: none; stroke: #b0b0b0; stroke-opacity: 0.3; stroke-width: 0.8; stroke-linecap: square"/>
     </g>
     <g id="line2d_14">
      <g>
       <use xlink:href="#mad189d2da4" x="388.554" y="354.04" style="stroke: #000000; stroke-width: 0.8"/>
      </g>
     </g>
     <g id="text_7">
      <!-- 3 -->
      <g transform="translate(385.37275 368.638437) scale(0.1 -0.1)">
       <use xlink:href="#DejaVuSans-33"/>
      </g>
     </g>
    </g>
    <g id="text_8">
     <!-- x -->
     <g transform="translate(223.490625 382.316562) scale(0.1 -0.1)">
      <defs>
       <path id="DejaVuSans-78" d="M 3513 3500 
L 2247 1797 
L 3578 0 
L 2900 0 
L 1881 1375 
L 863 0 
L 184 0 
L 1544 1831 
L 300 3500 
L 978 3500 
L 1906 2253 
L 2834 3500 
L 3513 3500 
z
" transform="scale(0.015625)"/>
      </defs>
      <use xlink:href="#DejaVuSans-78"/>
     </g>
    </g>
   </g>
   <g id="matplotlib.axis_2">
    <g id="ytick_1">
     <g id="line2d_15">
      <path d="M 64.346 354.04 
L 388.554 354.04 
" clip-path="url(#pe578deee9c)" style="fill: none; stroke: #b0b0b0; stroke-opacity: 0.3; stroke-width: 0.8; stroke-linecap: square"/>
     </g>
     <g id="line2d_16">
      <defs>
       <path id="m27781ac808" d="M 0 0 
L -3.5 0 
" style="stroke: #000000; stroke-width: 0.8"/>
      </defs>
      <g>
       <use xlink:href="#m27781ac808" x="64.346" y="354.04" style="stroke: #000000; stroke-width: 0.8"/>
      </g>
     </g>
     <g id="text_9">
      <!-- −3 -->
      <g transform="translate(42.603813 357.839219) scale(0.1 -0.1)">
       <use xlink:href="#DejaVuSans-2212"/>
       <use xlink:href="#DejaVuSans-33" transform="translate(83.789062 0)"/>
      </g>
     </g>
    </g>
    <g id="ytick_2">
     <g id="line2d_17">
      <path d="M 64.346 300.005333 
L 388.554 300.005333 
" clip-path="url(#pe578deee9c)" style="fill: none; stroke: #b0b0b0; stroke-opacity: 0.3; stroke-width: 0.8; stroke-linecap: square"/>
     </g>
     <g id="line2d_18">
      <g>
       <use xlink:href="#m27781ac808" x="64.346" y="300.005333" style="stroke: #000000; stroke-width: 0.8"/>
      </g>
     </g>
     <g id="text_10">
      <!-- −2 -->
      <g transform="translate(42.603813 303.804552) scale(0.1 -0.1)">
       <use xlink:href="#DejaVuSans-2212"/>
       <use xlink:href="#DejaVuSans-32" transform="translate(83.789062 0)"/>
      </g>
     </g>
    </g>
    <g id="ytick_3">
     <g id="line2d_19">
      <path d="M 64.346 245.970667 
L 388.554 245.970667 
" clip-path="url(#pe578deee9c)" style="fill: none; stroke: #b0b0b0; stroke-opacity: 0.3; stroke-width: 0.8; stroke-linecap: square"/>
     </g>
     <g id="line2d_20">
      <g>
       <use xlink:href="#m27781ac808" x="64.346" y="245.970667" style="stroke: #000000; stroke-width: 0.8"/>
      </g>
     </g>
     <g id="text_11">
      <!-- −1 -->
      <g transform="translate(42.603813 249.769885) scale(0.1 -0.1)">
       <use xlink:href="#DejaVuSans-2212"/>
       <use xlink:href="#DejaVuSans-31" transform="translate(83.789062 0)"/>
      </g>
     </g>
    </g>
    <g id="ytick_4">
     <g id="line2d_21">
      <path d="M 64.346 191.936 
L 388.554 191.936 
" clip-path="url(#pe578deee9c)" style="fill: none; stroke: #b0b0b0; stroke-opacity: 0.3; stroke-width: 0.8; stroke-linecap: square"/>
     </g>
     <g id="line2d_22">
      <g>
       <use xlink:href="#m27781ac808" x="64.346" y="191.936" style="stroke: #000000; stroke-width: 0.8"/>
      </g>
     </g>
     <g id="text_12">
      <!-- 0 -->
      <g transform="translate(50.9835 195.735219) scale(0.1 -0.1)">
       <use xlink:href="#DejaVuSans-30"/>
      </g>
     </g>
    </g>
    <g id="ytick_5">
     <g id="line2d_23">
      <path d="M 64.346 137.901333 
L 388.554 137.901333 
" clip-path="url(#pe578deee9c)" style="fill: none; stroke: #b0b0b0; stroke-opacity: 0.3; stroke-width: 0.8; stroke-linecap: square"/>
     </g>
     <g id="line2d_24">
      <g>
       <use xlink:href="#m27781ac808" x="64.346" y="137.901333" style="stroke: #000000; stroke-width: 0.8"/>
      </g>
     </g>
     <g id="text_13">
      <!-- 1 -->
      <g transform="translate(50.9835 141.700552) scale(0.1 -0.1)">
       <use xlink:href="#DejaVuSans-31"/>
      </g>
     </g>
    </g>
    <g id="ytick_6">
     <g id="line2d_25">
      <path d="M 64.346 83.866667 
L 388.554 83.866667 
" clip-path="url(#pe578deee9c)" style="fill: none; stroke: #b0b0b0; stroke-opacity: 0.3; stroke-width: 0.8; stroke-linecap: square"/>
     </g>
     <g id="line2d_26">
      <g>
       <use xlink:href="#m27781ac808" x="64.346" y="83.866667" style="stroke: #000000; stroke-width: 0.8"/>
      </g>
     </g>
     <g id="text_14">
      <!-- 2 -->
      <g transform="translate(50.9835 87.665885) scale(0.1 -0.1)">
       <use xlink:href="#DejaVuSans-32"/>
      </g>
     </g>
    </g>
    <g id="ytick_7">
     <g id="line2d_27">
      <path d="M 64.346 29.832 
L 388.554 29.832 
" clip-path="url(#pe578deee9c)" style="fill: none; stroke: #b0b0b0; stroke-opacity: 0.3; stroke-width: 0.8; stroke-linecap: square"/>
     </g>
     <g id="line2d_28">
      <g>
       <use xlink:href="#m27781ac808" x="64.346" y="29.832" style="stroke: #000000; stroke-width: 0.8"/>
      </g>
     </g>
     <g id="text_15">
      <!-- 3 -->
      <g transform="translate(50.9835 33.631219) scale(0.1 -0.1)">
       <use xlink:href="#DejaVuSans-33"/>
      </g>
     </g>
    </g>
    <g id="text_16">
     <!-- y -->
     <g transform="translate(36.524125 194.895375) rotate(-90) scale(0.1 -0.1)">
      <defs>
       <path id="DejaVuSans-79" d="M 2059 -325 
Q 1816 -950 1584 -1140 
Q 1353 -1331 966 -1331 
L 506 -1331 
L 506 -850 
L 844 -850 
Q 1081 -850 1212 -737 
Q 1344 -625 1503 -206 
L 1606 56 
L 191 3500 
L 800 3500 
L 1894 763 
L 2988 3500 
L 3597 3500 
L 2059 -325 
z
" transform="scale(0.015625)"/>
      </defs>
      <use xlink:href="#DejaVuSans-79"/>
     </g>
    </g>
   </g>
   <g id="QuadContourSet_1">
    <path clip-path="url(#pe578deee9c)" style="fill: none; stroke: #440154"/>
    <path d="M 243.064558 250.900311 
L 240.29808 251.617515 
L 237.039709 252.277996 
L 233.781337 252.762349 
L 230.522965 253.069518 
L 227.264593 253.198138 
L 224.006221 253.155264 
L 220.747849 252.938477 
L 217.489477 252.542188 
L 214.231106 251.969772 
L 210.972734 251.216225 
L 207.714362 250.265867 
L 204.45599 249.11627 
L 201.197618 247.755298 
L 197.939246 246.163736 
L 194.680874 244.319964 
L 191.422503 242.199577 
L 188.164131 239.767254 
L 184.66071 236.738613 
L 181.419841 233.480241 
L 178.389015 229.932208 
L 176.186423 226.963497 
L 174.066036 223.705126 
L 172.222264 220.446754 
L 170.630702 217.188382 
L 169.26973 213.93001 
L 168.120133 210.671638 
L 166.984714 206.673021 
L 166.416228 204.154894 
L 165.843812 200.896523 
L 165.355528 196.503539 
L 165.230736 194.379779 
L 165.187862 191.121407 
L 165.355528 187.368461 
L 165.623651 184.604663 
L 166.108004 181.346291 
L 166.984714 177.198979 
L 167.622327 174.829548 
L 168.664604 171.571176 
L 170.243085 167.562215 
L 171.872271 164.104644 
L 173.501457 161.117743 
L 175.130643 158.467035 
L 177.362046 155.279317 
L 180.018201 151.961596 
L 183.276573 148.466259 
L 186.534945 145.453038 
L 189.793317 142.848046 
L 193.051688 140.570277 
L 196.31006 138.596911 
L 199.568432 136.883377 
L 202.826804 135.407404 
L 206.233063 134.099899 
L 209.343548 133.108327 
L 212.60192 132.254485 
L 215.860291 131.594004 
L 219.118663 131.109651 
L 222.377035 130.802482 
L 225.635407 130.673862 
L 228.893779 130.716736 
L 232.152151 130.933523 
L 235.410523 131.329812 
L 238.668894 131.902228 
L 241.927266 132.655775 
L 245.185638 133.606133 
L 248.44401 134.75573 
L 251.702382 136.116702 
L 254.960754 137.708264 
L 258.219126 139.552036 
L 261.477497 141.672423 
L 264.735869 144.104746 
L 268.23929 147.133387 
L 271.480159 150.391759 
L 274.510985 153.939792 
L 276.713577 156.908503 
L 278.833964 160.166874 
L 280.677736 163.425246 
L 282.269298 166.683618 
L 283.63027 169.94199 
L 284.779867 173.200362 
L 285.915286 177.198979 
L 286.483772 179.717106 
L 287.056188 182.975477 
L 287.544472 187.368461 
L 287.669264 189.492221 
L 287.712138 192.750593 
L 287.544472 196.503539 
L 287.276349 199.267337 
L 286.791996 202.525709 
L 285.915286 206.673021 
L 285.277673 209.042452 
L 284.235396 212.300824 
L 282.656915 216.309785 
L 281.027729 219.767356 
L 279.398543 222.754257 
L 277.769357 225.404965 
L 275.537954 228.592683 
L 272.881799 231.910404 
L 269.623427 235.405741 
L 266.365055 238.418962 
L 263.106683 241.023954 
L 259.848312 243.301723 
L 256.58994 245.275089 
L 253.661291 246.823761 
L 253.661291 246.823761 
" clip-path="url(#pe578deee9c)" style="fill: none; stroke: #481b6d"/>
    <path d="M 212.60192 277.470457 
L 207.714362 276.530584 
L 202.826804 275.298295 
L 197.939246 273.756045 
L 193.051688 271.884856 
L 189.793317 270.444821 
L 186.534945 268.839518 
L 183.276573 267.058168 
L 179.002969 264.434774 
L 176.598412 262.805588 
L 172.263699 259.547216 
L 170.243085 257.88021 
L 166.673344 254.659658 
L 163.43094 251.401286 
L 160.46797 248.09842 
L 157.209598 244.022674 
L 155.466686 241.626171 
L 153.296966 238.367799 
L 150.692854 233.986005 
L 148.72183 230.221869 
L 146.501144 225.334312 
L 145.216462 222.07594 
L 143.566877 217.188382 
L 142.231382 212.300824 
L 141.197475 207.413266 
L 140.454453 202.525709 
L 139.993362 197.638151 
L 139.808926 192.750593 
L 139.901144 187.863035 
L 140.270017 182.975477 
L 140.917739 178.07499 
L 141.855416 173.200362 
L 143.087705 168.312804 
L 144.629955 163.425246 
L 146.501144 158.537688 
L 147.941179 155.279317 
L 149.546482 152.020945 
L 151.327832 148.762573 
L 153.951226 144.488969 
L 155.580412 142.084412 
L 158.838784 137.749699 
L 160.50579 135.729085 
L 163.726342 132.159344 
L 166.984714 128.91694 
L 170.28758 125.95397 
L 174.363326 122.695598 
L 176.759829 120.952686 
L 180.018201 118.782966 
L 184.399995 116.178854 
L 188.164131 114.20783 
L 192.637579 112.16462 
M 203.346176 108.431132 
L 207.714362 107.341416 
L 212.60192 106.401543 
L 217.489477 105.756017 
L 222.377035 105.387144 
L 227.264593 105.294926 
L 232.152151 105.479362 
L 237.039709 105.940453 
L 241.927266 106.683475 
L 246.814824 107.717382 
L 251.702382 109.052877 
L 256.58994 110.702462 
L 259.848312 111.987144 
L 263.106683 113.427179 
L 266.365055 115.032482 
L 269.623427 116.813832 
L 273.897031 119.437226 
L 276.301588 121.066412 
L 280.636301 124.324784 
L 282.656915 125.99179 
L 286.226656 129.212342 
L 289.46906 132.470714 
L 292.43203 135.77358 
L 295.690402 139.849326 
L 297.433314 142.245829 
L 299.603034 145.504201 
L 302.207146 149.885995 
L 304.17817 153.650131 
L 306.398856 158.537688 
L 307.683538 161.79606 
L 309.333123 166.683618 
L 310.668618 171.571176 
L 311.702525 176.458734 
L 312.445547 181.346291 
L 312.906638 186.233849 
L 313.091074 191.121407 
L 312.998856 196.008965 
L 312.629983 200.896523 
L 311.982261 205.79701 
L 311.044584 210.671638 
L 309.812295 215.559196 
L 308.270045 220.446754 
L 306.398856 225.334312 
L 304.958821 228.592683 
L 303.353518 231.851055 
L 301.572168 235.109427 
L 298.948774 239.383031 
L 297.319588 241.787588 
L 294.061216 246.122301 
L 292.39421 248.142915 
L 289.173658 251.712656 
L 285.915286 254.95506 
L 282.61242 257.91803 
L 278.536674 261.176402 
L 276.140171 262.919314 
L 272.881799 265.089034 
L 268.500005 267.693146 
L 264.735869 269.66417 
L 259.848312 271.884856 
L 256.58994 273.169538 
L 251.702382 274.819123 
L 246.814824 276.154618 
L 241.927266 277.188525 
L 237.039709 277.931547 
L 232.152151 278.392638 
L 227.264593 278.577074 
L 222.377035 278.484856 
L 217.489477 278.115983 
L 212.60192 277.470457 
L 212.60192 277.470457 
" clip-path="url(#pe578deee9c)" style="fill: none; stroke: #46327e"/>
    <path d="M 187.713276 290.731183 
L 183.262565 288.872563 
L 178.389015 286.547662 
L 173.501457 283.904481 
L 168.613899 280.911239 
L 165.355528 278.704972 
L 161.476756 275.839075 
L 157.209598 272.355681 
L 153.834209 269.322332 
L 150.51149 266.06396 
L 147.434482 262.776495 
L 144.176111 258.960397 
L 140.849124 254.659658 
L 137.474761 249.772101 
L 134.400995 244.743625 
L 131.838338 239.996985 
L 129.507134 235.109427 
L 127.477432 230.221869 
L 125.723421 225.334312 
L 124.231975 220.446754 
L 122.990784 215.559196 
L 121.997999 210.671638 
L 121.236367 205.78408 
L 120.710015 200.896523 
L 120.409242 196.008965 
L 120.334049 191.121407 
L 120.484435 186.233849 
L 120.860401 181.346291 
L 121.463422 176.458734 
L 122.303471 171.571176 
L 123.378592 166.683618 
L 124.698611 161.79606 
L 126.275573 156.908503 
L 128.122326 152.020945 
L 130.252587 147.133387 
L 132.771809 142.075966 
L 135.441575 137.358271 
L 137.659367 133.817863 
L 140.917739 129.119096 
L 144.176111 124.911603 
L 147.460545 121.066412 
L 150.692854 117.622733 
L 153.951226 114.439965 
L 157.472124 111.291296 
L 161.476756 108.032925 
L 165.355528 105.167028 
L 168.613899 102.960761 
L 173.642375 99.886995 
L 178.389015 97.324338 
L 183.276573 94.993134 
L 188.164131 92.963432 
L 193.051688 91.209421 
L 197.939246 89.717975 
L 202.826804 88.476784 
L 207.714362 87.483999 
L 212.60192 86.722367 
L 217.489477 86.196015 
L 222.377035 85.895242 
L 227.264593 85.820049 
L 232.152151 85.970435 
L 237.039709 86.346401 
L 241.927266 86.949422 
L 246.814824 87.789471 
L 251.702382 88.864592 
L 256.58994 90.184611 
L 261.477497 91.761573 
L 266.365055 93.608326 
L 271.252613 95.738587 
L 276.310034 98.257809 
L 281.027729 100.927575 
L 284.568137 103.145367 
L 289.266904 106.403739 
L 293.474397 109.662111 
L 297.319588 112.946545 
L 300.763267 116.178854 
L 303.946035 119.437226 
L 307.094704 122.958124 
L 310.353075 126.962756 
L 313.218972 130.841528 
L 315.425239 134.099899 
L 318.499005 139.128375 
L 321.061662 143.875015 
L 323.392866 148.762573 
L 325.422568 153.650131 
L 327.176579 158.537688 
L 328.668025 163.425246 
L 329.909216 168.312804 
L 330.902001 173.200362 
L 331.663633 178.08792 
L 332.189985 182.975477 
L 332.490758 187.863035 
L 332.565951 192.750593 
L 332.415565 197.638151 
L 332.039599 202.525709 
L 331.436578 207.413266 
L 330.596529 212.300824 
L 329.521408 217.188382 
L 328.201389 222.07594 
L 326.624427 226.963497 
L 324.777674 231.851055 
L 322.647413 236.738613 
L 320.128191 241.796034 
L 317.458425 246.513729 
L 315.240633 250.054137 
L 311.982261 254.752904 
L 308.723889 258.960397 
L 305.439455 262.805588 
L 302.207146 266.249267 
L 298.948774 269.432035 
L 295.427876 272.580704 
L 291.423244 275.839075 
L 287.544472 278.704972 
L 284.286101 280.911239 
L 279.257625 283.985005 
L 274.510985 286.547662 
L 269.623427 288.878866 
L 264.735869 290.908568 
L 259.848312 292.662579 
L 254.960754 294.154025 
L 250.073196 295.395216 
L 245.185638 296.388001 
L 240.29808 297.149633 
L 235.410523 297.675985 
L 230.522965 297.976758 
L 225.635407 298.051951 
L 220.747849 297.901565 
L 215.860291 297.525599 
L 210.972734 296.922578 
L 206.085176 296.082529 
L 201.197618 295.007408 
L 198.471556 294.297664 
L 198.471556 294.297664 
" clip-path="url(#pe578deee9c)" style="fill: none; stroke: #3f4788"/>
    <path d="M 210.972734 313.492665 
L 206.085176 312.7686 
L 200.444847 311.681166 
L 196.31006 310.707958 
L 191.422503 309.359414 
L 186.534945 307.789313 
L 181.647387 305.988158 
L 176.759829 303.945906 
L 171.872271 301.648125 
L 166.984714 299.077015 
L 162.097156 296.2139 
L 157.209598 293.034682 
L 153.64737 290.501749 
L 149.063668 286.945428 
L 145.56441 283.985005 
L 142.001998 280.726633 
L 138.703468 277.468261 
L 135.640548 274.209889 
L 132.771809 270.93091 
L 128.878249 266.06396 
L 125.351318 261.176402 
L 122.1721 256.288844 
L 119.308985 251.401286 
L 116.47995 245.990062 
L 114.440094 241.626171 
L 112.397842 236.738613 
L 110.596687 231.851055 
L 109.026586 226.963497 
L 107.678042 222.07594 
L 106.542073 217.188382 
L 105.6174 212.300824 
L 104.893335 207.413266 
L 104.371995 202.525709 
L 104.046158 197.638151 
L 103.915823 192.750593 
L 103.98099 187.863035 
L 104.24166 182.975477 
L 104.697832 178.08792 
L 105.353207 173.200362 
L 106.211832 168.312804 
L 107.276325 163.425246 
L 108.551407 158.537688 
L 110.045977 153.650131 
L 111.769441 148.762573 
L 113.731753 143.875015 
L 115.943448 138.987457 
L 118.420338 134.099899 
L 121.367508 128.903513 
L 124.625879 123.766483 
L 127.884251 119.13337 
L 131.440572 114.549668 
L 134.400995 111.05041 
L 137.659367 107.487998 
L 140.917739 104.189468 
L 144.176111 101.126548 
L 147.45509 98.257809 
L 152.32204 94.364249 
L 157.209598 90.837318 
L 162.097156 87.6581 
L 166.984714 84.794985 
L 172.395938 81.96595 
L 176.759829 79.926094 
L 181.647387 77.883842 
L 186.534945 76.082687 
L 191.422503 74.512586 
L 196.31006 73.164042 
L 201.197618 72.028073 
L 206.085176 71.1034 
L 210.972734 70.379335 
L 215.860291 69.857995 
L 220.747849 69.532158 
L 225.635407 69.401823 
L 230.522965 69.46699 
L 235.410523 69.72766 
L 240.29808 70.183832 
L 245.185638 70.839207 
L 250.073196 71.697832 
L 254.960754 72.762325 
L 259.848312 74.037407 
L 264.735869 75.531977 
L 269.623427 77.255441 
L 270.842128 77.725512 
M 281.343485 82.38411 
L 285.915286 84.794985 
L 290.802844 87.6581 
L 295.690402 90.837318 
L 299.25263 93.370251 
L 303.836332 96.926572 
L 307.33559 99.886995 
L 310.898002 103.145367 
L 314.196532 106.403739 
L 317.259452 109.662111 
L 320.128191 112.94109 
L 324.021751 117.80804 
L 327.548682 122.695598 
L 330.7279 127.583156 
L 333.591015 132.470714 
L 336.42005 137.881938 
L 338.459906 142.245829 
L 340.502158 147.133387 
L 342.303313 152.020945 
L 343.873414 156.908503 
L 345.221958 161.79606 
L 346.357927 166.683618 
L 347.2826 171.571176 
L 348.006665 176.458734 
L 348.528005 181.346291 
L 348.853842 186.233849 
L 348.984177 191.121407 
L 348.91901 196.008965 
L 348.65834 200.896523 
L 348.202168 205.78408 
L 347.546793 210.671638 
L 346.688168 215.559196 
L 345.623675 220.446754 
L 344.348593 225.334312 
L 342.854023 230.221869 
L 341.130559 235.109427 
L 339.168247 239.996985 
L 336.956552 244.884543 
L 334.479662 249.772101 
L 331.532492 254.968487 
L 328.274121 260.105517 
L 325.015749 264.73863 
L 321.459428 269.322332 
L 318.499005 272.82159 
L 315.240633 276.384002 
L 311.982261 279.682532 
L 308.723889 282.745452 
L 305.44491 285.614191 
L 300.57796 289.507751 
L 295.690402 293.034682 
L 290.802844 296.2139 
L 285.915286 299.077015 
L 280.504062 301.90605 
L 276.140171 303.945906 
L 271.252613 305.988158 
L 266.365055 307.789313 
L 261.477497 309.359414 
L 256.58994 310.707958 
L 251.702382 311.843927 
L 246.814824 312.7686 
L 241.927266 313.492665 
L 237.039709 314.014005 
L 232.152151 314.339842 
L 227.264593 314.470177 
L 222.377035 314.40501 
L 217.489477 314.14434 
L 212.60192 313.688168 
L 210.972734 313.492665 
L 210.972734 313.492665 
" clip-path="url(#pe578deee9c)" style="fill: none; stroke: #365c8d"/>
    <path d="M 210.972734 328.061342 
L 206.085176 327.414657 
L 199.919362 326.343839 
L 196.31006 325.579981 
L 191.422503 324.38386 
L 186.534945 322.994917 
L 181.647387 321.40583 
L 176.759829 319.608901 
L 171.872271 317.596033 
L 166.12373 314.939538 
L 162.097156 312.882219 
L 157.037072 310.05198 
L 151.771178 306.793608 
L 146.983844 303.535236 
L 142.546925 300.24116 
L 137.659367 296.268903 
L 133.013227 292.130935 
L 129.513437 288.749782 
L 124.979214 283.985005 
L 121.367508 279.838231 
L 118.109136 275.792869 
L 114.530745 270.951518 
L 111.235495 266.06396 
L 108.232395 261.176402 
L 105.075648 255.476489 
L 103.027299 251.401286 
L 100.789967 246.513729 
L 98.558905 241.058865 
L 96.929719 236.590995 
L 95.300533 231.549219 
L 93.671347 225.687579 
L 92.806019 222.07594 
L 91.79575 217.188382 
L 90.971343 212.300824 
L 90.324658 207.413266 
L 89.859176 202.525709 
L 89.56825 197.638151 
L 89.45188 192.750593 
L 89.510065 187.863035 
L 89.742806 182.975477 
L 90.150102 178.08792 
L 90.735798 173.200362 
L 91.501319 168.312804 
L 92.448393 163.425246 
L 93.671347 158.184421 
L 95.300533 152.322781 
L 96.429689 148.762573 
L 98.155659 143.875015 
L 100.18809 138.762651 
L 102.255579 134.099899 
L 105.075648 128.395511 
L 107.295055 124.324784 
L 110.202913 119.437226 
L 113.397398 114.549668 
L 116.904181 109.662111 
L 120.752087 104.774553 
L 124.625879 100.278187 
L 128.032139 96.628623 
L 132.771809 91.966652 
L 136.635836 88.482693 
L 140.917739 84.914441 
L 145.805296 81.186011 
L 150.692854 77.787005 
L 155.580412 74.68997 
L 160.46797 71.870422 
L 166.12373 68.932462 
L 170.243085 66.995348 
L 175.130643 64.910596 
L 180.018201 63.043603 
L 184.905759 61.386204 
L 189.793317 59.930635 
L 194.680874 58.669513 
L 199.919362 57.528161 
L 204.45599 56.712516 
L 210.230872 55.898975 
L 214.231106 55.480942 
L 219.118663 55.131831 
L 224.006221 54.957275 
L 228.893779 54.957275 
L 233.781337 55.131831 
L 238.668894 55.480942 
L 243.556452 56.005881 
L 248.44401 56.712516 
L 253.331568 57.596635 
L 258.219126 58.669513 
L 263.106683 59.930635 
L 267.994241 61.386204 
L 272.881799 63.043603 
L 277.769357 64.910596 
L 283.334357 67.303276 
L 287.544472 69.311442 
L 293.010334 72.190834 
L 297.319588 74.68997 
L 302.207146 77.787005 
L 307.094704 81.186011 
L 311.982261 84.914441 
L 316.264164 88.482693 
L 320.128191 91.966652 
L 323.386563 95.122218 
L 327.920786 99.886995 
L 331.532492 104.033769 
L 334.790864 108.079131 
L 338.369255 112.920482 
L 341.664505 117.80804 
L 344.667605 122.695598 
L 347.824352 128.395511 
L 349.872701 132.470714 
L 352.110033 137.358271 
L 354.341095 142.813135 
L 355.970281 147.281005 
L 357.599467 152.322781 
L 359.228653 158.184421 
L 360.093981 161.79606 
L 361.10425 166.683618 
L 361.928657 171.571176 
L 362.575342 176.458734 
L 363.040824 181.346291 
L 363.33175 186.233849 
L 363.44812 191.121407 
L 363.389935 196.008965 
L 363.157194 200.896523 
L 362.749898 205.78408 
L 362.164202 210.671638 
L 361.398681 215.559196 
L 360.451607 220.446754 
L 359.228653 225.687579 
L 357.599467 231.549219 
L 356.470311 235.109427 
L 354.744341 239.996985 
L 352.71191 245.109349 
L 350.644421 249.772101 
L 347.824352 255.476489 
L 345.604945 259.547216 
L 342.697087 264.434774 
L 339.502602 269.322332 
L 335.995819 274.209889 
L 332.147913 279.097447 
L 328.274121 283.593813 
L 327.337186 284.619798 
M 319.023798 292.924316 
L 315.240633 296.268903 
L 311.982261 298.957559 
L 307.094704 302.685989 
L 302.207146 306.084995 
L 297.319588 309.18203 
L 292.43203 312.001578 
L 286.77627 314.939538 
L 282.656915 316.876652 
L 277.769357 318.961404 
L 272.881799 320.828397 
L 267.994241 322.485796 
L 263.106683 323.941365 
L 258.219126 325.202487 
L 252.980638 326.343839 
L 248.44401 327.159484 
L 242.669128 327.973025 
L 238.668894 328.391058 
L 233.781337 328.740169 
L 228.893779 328.914725 
L 224.006221 328.914725 
L 219.118663 328.740169 
L 214.231106 328.391058 
L 210.972734 328.061342 
L 210.972734 328.061342 
" clip-path="url(#pe578deee9c)" style="fill: none; stroke: #2e6e8e"/>
    <path d="M 274.05068 334.263328 
L 269.623427 335.669342 
L 264.735869 337.047303 
L 259.848312 338.249827 
L 253.331568 339.587049 
L 246.814824 340.625431 
L 240.29808 341.373332 
L 233.781337 341.833754 
L 227.264593 342.01084 
L 220.747849 341.904589 
L 214.231106 341.515001 
L 207.714362 340.840269 
L 201.197618 339.873499 
L 196.31006 338.955807 
L 189.793317 337.468329 
L 184.79834 336.118955 
L 178.389015 334.109893 
L 173.501457 332.362626 
L 168.613899 330.420911 
L 163.069893 327.973025 
L 158.838784 325.920932 
L 153.490916 323.085467 
L 147.919359 319.827095 
L 144.176111 317.451325 
L 139.288553 314.107877 
L 134.400995 310.469638 
L 129.852687 306.793608 
L 126.10491 303.535236 
L 121.367508 299.084949 
L 117.727024 295.389307 
L 113.221578 290.439685 
L 109.200333 285.614191 
L 105.456211 280.726633 
L 102.016331 275.839075 
L 98.85729 270.951518 
L 95.958026 266.06396 
L 93.299529 261.176402 
L 90.412975 255.316107 
L 88.655097 251.401286 
L 86.648527 246.513729 
L 84.837895 241.626171 
L 83.216522 236.738613 
L 81.778028 231.851055 
L 80.516317 226.963497 
L 79.104356 220.446754 
L 78.243953 215.559196 
L 77.34913 209.042452 
L 76.747039 202.525709 
L 76.428286 196.008965 
L 76.392869 189.492221 
L 76.640788 182.975477 
L 77.172045 176.458734 
L 77.760569 171.571176 
L 78.798951 165.054432 
L 79.774132 160.166874 
L 80.917671 155.279317 
L 82.267045 150.28434 
L 84.276107 143.875015 
L 86.023374 138.987457 
L 87.965089 134.099899 
L 90.412975 128.555893 
L 92.465068 124.324784 
L 95.300533 118.976916 
L 98.558905 113.405359 
L 100.934675 109.662111 
L 104.278123 104.774553 
L 107.916362 99.886995 
L 111.592392 95.338687 
L 114.850764 91.59091 
L 119.301051 86.853508 
L 122.996693 83.213024 
L 127.946315 78.707578 
L 132.771809 74.686333 
L 137.659367 70.942211 
L 142.546925 67.502331 
L 147.434482 64.34329 
L 152.32204 61.444026 
L 157.209598 58.785529 
L 163.069893 55.898975 
L 166.984714 54.141097 
L 171.872271 52.134527 
L 176.759829 50.323895 
L 181.647387 48.702522 
L 186.534945 47.264028 
L 191.422503 46.002317 
L 197.939246 44.590356 
L 202.826804 43.729953 
L 209.343548 42.83513 
L 215.860291 42.233039 
L 222.377035 41.914286 
L 228.893779 41.878869 
L 235.410523 42.126788 
L 241.927266 42.658045 
L 246.814824 43.246569 
L 253.331568 44.284951 
L 258.219126 45.260132 
L 263.106683 46.403671 
L 268.10166 47.753045 
L 274.510985 49.762107 
L 279.398543 51.509374 
L 284.286101 53.451089 
L 289.830107 55.898975 
L 294.061216 57.951068 
L 299.409084 60.786533 
L 304.980641 64.044905 
L 308.723889 66.420675 
L 313.611447 69.764123 
L 318.499005 73.402362 
L 323.047313 77.078392 
L 326.79509 80.336764 
L 331.532492 84.787051 
L 335.172976 88.482693 
L 339.678422 93.432315 
L 343.699667 98.257809 
L 347.443789 103.145367 
L 350.883669 108.032925 
L 354.04271 112.920482 
L 356.941974 117.80804 
L 359.600471 122.695598 
L 362.487025 128.555893 
L 364.244903 132.470714 
L 366.251473 137.358271 
L 368.062105 142.245829 
L 369.683478 147.133387 
L 371.121972 152.020945 
L 372.383683 156.908503 
L 373.795644 163.425246 
L 374.656047 168.312804 
L 375.55087 174.829548 
L 376.152961 181.346291 
L 376.471714 187.863035 
L 376.507131 194.379779 
L 376.259212 200.896523 
L 375.727955 207.413266 
L 375.139431 212.300824 
L 374.101049 218.817568 
L 373.125868 223.705126 
L 371.982329 228.592683 
L 370.632955 233.58766 
L 368.623893 239.996985 
L 366.876626 244.884543 
L 364.934911 249.772101 
L 362.487025 255.316107 
L 360.434932 259.547216 
L 357.599467 264.895084 
L 354.341095 270.466641 
L 351.965325 274.209889 
L 348.621877 279.097447 
L 344.983638 283.985005 
L 341.307608 288.533313 
L 338.049236 292.28109 
L 333.598949 297.018492 
L 329.903307 300.658976 
L 324.953685 305.164422 
L 320.128191 309.185667 
L 315.240633 312.929789 
L 310.353075 316.369669 
L 305.465518 319.52871 
L 300.57796 322.427974 
L 295.690402 325.086471 
L 289.830107 327.973025 
L 284.681204 330.253573 
L 284.681204 330.253573 
" clip-path="url(#pe578deee9c)" style="fill: none; stroke: #277f8e"/>
    <path d="M 204.45599 352.540408 
L 197.939246 351.511021 
L 191.422503 350.208474 
L 184.905759 348.62423 
L 178.389015 346.749393 
L 173.501457 345.146638 
L 168.613899 343.36927 
L 162.770761 341.006513 
L 157.209598 338.506165 
L 152.32204 336.098127 
L 146.341432 332.860583 
L 142.546925 330.634827 
L 137.659367 327.558368 
L 132.771809 324.229417 
L 127.884251 320.628799 
L 122.796227 316.568724 
L 118.109136 312.515023 
L 113.720369 308.422794 
L 109.963206 304.665631 
L 105.870977 300.276864 
L 101.650655 295.389307 
L 97.757201 290.501749 
L 94.156583 285.614191 
L 90.827632 280.726633 
L 87.751173 275.839075 
L 84.909791 270.951518 
L 82.267045 266.02323 
L 79.879835 261.176402 
L 77.379487 255.615239 
L 75.01673 249.772101 
L 73.239362 244.884543 
L 71.636607 239.996985 
L 69.76177 233.480241 
L 68.177526 226.963497 
L 66.874979 220.446754 
L 65.845592 213.93001 
L 65.088596 207.413266 
L 64.594903 200.896523 
L 64.364513 194.379779 
L 64.397426 187.863035 
L 64.693642 181.346291 
L 65.25316 174.829548 
L 66.07701 168.312804 
L 67.174217 161.79606 
L 68.547032 155.279317 
L 70.203008 148.762573 
L 72.151087 142.245829 
L 74.121116 136.501751 
L 76.30148 130.841528 
L 79.008673 124.568168 
L 81.463893 119.437226 
L 84.01093 114.549668 
L 87.154603 109.027207 
L 90.412975 103.78271 
L 93.671347 98.947355 
L 96.929719 94.459769 
L 100.317685 90.111879 
L 104.426689 85.224322 
L 108.33402 80.914765 
L 112.060783 77.078392 
L 116.47995 72.840835 
L 120.869353 68.932462 
L 124.786827 65.67409 
L 129.513437 62.010968 
L 134.400995 58.504182 
L 139.288553 55.261362 
L 144.176111 52.264091 
L 149.275982 49.382231 
L 153.951226 46.949893 
L 159.082168 44.494673 
L 165.355528 41.78748 
L 171.015751 39.607116 
L 176.759829 37.637087 
L 183.276573 35.689008 
L 189.793317 34.033032 
L 196.31006 32.660217 
L 202.826804 31.56301 
L 209.343548 30.73916 
L 215.860291 30.179642 
L 222.377035 29.883426 
L 228.893779 29.850513 
L 235.410523 30.080903 
L 241.927266 30.574596 
L 248.44401 31.331592 
L 254.960754 32.360979 
L 261.477497 33.663526 
L 267.994241 35.24777 
L 274.510985 37.122607 
L 279.398543 38.725362 
L 284.286101 40.50273 
L 290.129239 42.865487 
L 295.690402 45.365835 
L 300.57796 47.773873 
L 306.558568 51.011417 
L 310.353075 53.237173 
L 315.240633 56.313632 
L 320.128191 59.642583 
L 325.015749 63.243201 
L 330.103773 67.303276 
L 334.790864 71.356977 
L 339.179631 75.449206 
L 342.936794 79.206369 
L 347.029023 83.595136 
L 351.249345 88.482693 
L 355.142799 93.370251 
L 358.743417 98.257809 
L 362.072368 103.145367 
L 365.148827 108.032925 
L 367.990209 112.920482 
L 370.632955 117.84877 
L 373.020165 122.695598 
L 375.520513 128.256761 
L 377.88327 134.099899 
L 379.660638 138.987457 
L 381.263393 143.875015 
L 383.13823 150.391759 
L 384.722474 156.908503 
L 386.025021 163.425246 
L 387.054408 169.94199 
L 387.811404 176.458734 
L 388.305097 182.975477 
L 388.535487 189.492221 
L 388.502574 196.008965 
L 388.206358 202.525709 
L 387.64684 209.042452 
L 386.82299 215.559196 
L 385.725783 222.07594 
L 384.352968 228.592683 
L 382.696992 235.109427 
L 380.748913 241.626171 
L 378.778884 247.370249 
L 376.59852 253.030472 
L 373.891327 259.303832 
L 371.436107 264.434774 
L 368.88907 269.322332 
L 365.745397 274.844793 
L 362.487025 280.08929 
L 359.228653 284.924645 
L 355.970281 289.412231 
L 352.582315 293.760121 
L 348.473311 298.647678 
L 344.56598 302.957235 
L 340.839217 306.793608 
L 336.42005 311.031165 
L 334.327556 312.928244 
M 325.357156 320.365181 
L 321.725776 323.085467 
L 316.869819 326.478787 
L 311.982261 329.638149 
L 306.558568 332.860583 
L 302.207146 335.246507 
L 297.276964 337.748141 
L 292.43203 340.001699 
L 286.173975 342.635698 
L 281.027729 344.57469 
L 274.510985 346.749393 
L 267.994241 348.62423 
L 261.477497 350.208474 
L 254.960754 351.511021 
L 248.44401 352.540408 
L 241.927266 353.297404 
L 235.410523 353.791097 
L 228.893779 354.021487 
L 222.377035 353.988574 
L 215.860291 353.692358 
L 209.343548 353.13284 
L 204.45599 352.540408 
L 204.45599 352.540408 
" clip-path="url(#pe578deee9c)" style="fill: none; stroke: #21918c"/>
    <path d="M 165.182503 354.04 
L 158.838784 351.497069 
L 153.551688 349.152442 
L 147.434482 346.169072 
L 142.546925 343.564785 
L 139.551414 341.866918 
M 126.166785 333.266496 
L 121.191162 329.602211 
L 116.47995 325.867714 
L 111.316217 321.456281 
L 106.043567 316.568724 
L 101.181773 311.681166 
L 96.684613 306.793608 
L 92.042161 301.32333 
L 88.648936 297.018492 
L 85.056591 292.130935 
L 81.717228 287.243377 
L 78.614165 282.355819 
L 75.732158 277.468261 
L 72.49193 271.484684 
L 69.809955 266.06396 
L 67.587154 261.176402 
L 64.904931 254.659658 
L 64.346 253.203497 
M 388.554 253.203497 
L 386.011069 259.547216 
L 383.666442 264.834312 
L 380.683072 270.951518 
L 378.078785 275.839075 
L 376.554053 278.534049 
M 367.617193 292.448367 
L 364.116211 297.194838 
L 360.381714 301.90605 
L 355.970281 307.069783 
L 351.082724 312.342433 
L 346.195166 317.204227 
L 341.307608 321.701387 
L 335.83733 326.343839 
L 331.532492 329.737064 
L 326.644935 333.329409 
L 321.757377 336.668772 
L 316.869819 339.771835 
L 311.982261 342.653842 
L 305.998684 345.89407 
L 300.57796 348.576045 
L 295.690402 350.798846 
L 289.173658 353.481069 
L 287.717497 354.04 
M 64.346 130.668503 
L 66.888931 124.324784 
L 69.233558 119.037688 
L 72.216928 112.920482 
L 74.821215 108.032925 
L 76.345947 105.337951 
M 85.282807 91.423633 
L 88.783789 86.677162 
L 92.518286 81.96595 
L 96.929719 76.802217 
L 101.817276 71.529567 
L 106.704834 66.667773 
L 111.592392 62.170613 
L 117.06267 57.528161 
L 121.367508 54.134936 
L 126.255065 50.542591 
L 131.142623 47.203228 
L 136.030181 44.100165 
L 140.917739 41.218158 
L 146.901316 37.97793 
L 152.32204 35.295955 
L 157.209598 33.073154 
L 163.726342 30.390931 
L 165.182503 29.832 
M 287.717497 29.832 
L 294.061216 32.374931 
L 299.348312 34.719558 
L 305.465518 37.702928 
L 310.353075 40.307215 
L 313.348586 42.005082 
M 326.733215 50.605504 
L 331.708838 54.269789 
L 336.42005 58.004286 
L 341.583783 62.415719 
L 346.856433 67.303276 
L 351.718227 72.190834 
L 356.215387 77.078392 
L 360.857839 82.54867 
L 364.251064 86.853508 
L 367.843409 91.741065 
L 371.182772 96.628623 
L 374.285835 101.516181 
L 377.167842 106.403739 
L 380.40807 112.387316 
L 383.090045 117.80804 
L 385.312846 122.695598 
L 387.995069 129.212342 
L 388.554 130.668503 
L 388.554 130.668503 
" clip-path="url(#pe578deee9c)" style="fill: none; stroke: #1fa187"/>
    <path d="M 139.805084 354.04 
L 134.400995 351.034259 
L 128.584898 347.523256 
L 122.996693 343.865409 
L 118.109136 340.419226 
L 112.448961 336.118955 
L 108.33402 332.769584 
L 102.842025 327.973025 
L 97.668082 323.085467 
L 96.043484 321.470099 
M 85.030972 309.345832 
L 81.659369 305.164422 
L 77.379487 299.46712 
L 74.121116 294.799604 
L 70.282407 288.872563 
L 67.351741 283.985005 
L 64.346 278.580916 
M 388.554 278.580916 
L 385.548259 283.985005 
L 382.037256 289.801102 
L 378.379409 295.389307 
L 374.933226 300.276864 
L 370.632955 305.937039 
L 367.283584 310.05198 
L 362.487025 315.543975 
L 357.599467 320.717918 
L 355.956482 322.369961 
M 343.941779 333.28721 
L 339.678422 336.726631 
L 333.98112 341.006513 
L 329.313604 344.264884 
L 323.386563 348.103593 
L 318.499005 351.034259 
L 313.094916 354.04 
M 64.346 105.291084 
L 67.351741 99.886995 
L 70.862744 94.070898 
L 74.520591 88.482693 
L 77.966774 83.595136 
L 82.267045 77.934961 
L 85.616416 73.82002 
L 90.412975 68.328025 
L 95.300533 63.154082 
L 96.943518 61.502039 
M 108.958221 50.58479 
L 113.221578 47.145369 
L 118.91888 42.865487 
L 123.586396 39.607116 
L 129.513437 35.768407 
L 134.400995 32.837741 
L 139.805084 29.832 
M 313.094916 29.832 
L 318.499005 32.837741 
L 324.315102 36.348744 
L 329.903307 40.006591 
L 334.790864 43.452774 
L 340.451039 47.753045 
L 344.56598 51.102416 
L 350.057975 55.898975 
L 355.231918 60.786533 
L 356.856516 62.401901 
M 367.869028 74.526168 
L 371.240631 78.707578 
L 375.520513 84.40488 
L 378.778884 89.072396 
L 382.617593 94.999437 
L 385.548259 99.886995 
L 388.554 105.291084 
L 388.554 105.291084 
" clip-path="url(#pe578deee9c)" style="fill: none; stroke: #2db27d"/>
    <path d="M 108.408111 345.575712 
L 104.676886 342.635698 
L 100.18809 338.895036 
L 95.233009 334.489769 
L 90.115122 329.602211 
L 85.350193 324.714653 
L 80.637859 319.52125 
L 76.753364 314.939538 
L 72.49193 309.562254 
L 69.227559 305.164422 
L 65.821201 300.276864 
L 64.346 298.055084 
M 379.952617 310.155437 
L 375.520513 315.697477 
L 371.994096 319.827095 
L 367.374583 324.900562 
L 362.487025 329.89656 
L 357.599467 334.551921 
L 352.148193 339.377327 
L 347.824352 342.957281 
L 341.912406 347.523256 
L 336.42005 351.452539 
L 332.569084 354.04 
M 72.947383 73.716563 
L 77.379487 68.174523 
L 80.905904 64.044905 
L 85.525417 58.971438 
L 90.412975 53.97544 
L 95.300533 49.320079 
L 100.751807 44.494673 
L 105.075648 40.914719 
L 110.987594 36.348744 
L 116.47995 32.419461 
L 120.330916 29.832 
M 344.491889 38.296288 
L 348.223114 41.236302 
L 352.71191 44.976964 
L 357.666991 49.382231 
L 362.784878 54.269789 
L 367.549807 59.157347 
L 372.262141 64.35075 
L 376.146636 68.932462 
L 380.40807 74.309746 
L 383.672441 78.707578 
L 387.078799 83.595136 
L 388.554 85.816916 
L 388.554 85.816916 
" clip-path="url(#pe578deee9c)" style="fill: none; stroke: #4ac16d"/>
    <path d="M 103.913108 354.04 
L 98.558905 349.849765 
L 93.671347 345.764392 
L 88.352192 341.006513 
L 83.257186 336.118955 
L 78.498114 331.231397 
L 74.536459 326.897904 
M 388.554 314.472892 
L 384.363765 319.827095 
L 380.278392 324.714653 
L 375.520513 330.033808 
L 370.632955 335.128814 
L 365.745397 339.887886 
L 361.323002 343.928884 
M 64.346 69.399108 
L 68.536235 64.044905 
L 72.621608 59.157347 
L 77.379487 53.838192 
L 82.267045 48.743186 
L 87.154603 43.984114 
L 91.576998 39.943116 
M 348.986892 29.832 
L 354.341095 34.022235 
L 359.228653 38.107608 
L 364.547808 42.865487 
L 369.642814 47.753045 
L 374.401886 52.640603 
L 378.363541 56.974096 
L 378.363541 56.974096 
" clip-path="url(#pe578deee9c)" style="fill: none; stroke: #73d056"/>
    <path d="M 89.449455 354.04 
L 88.783789 353.475192 
L 87.544102 352.410814 
L 87.154603 352.072984 
L 85.683058 350.781628 
L 85.525417 350.641864 
L 83.896231 349.180635 
L 83.865155 349.152442 
L 82.267045 347.687508 
L 82.089875 347.523256 
L 80.637859 346.162947 
L 80.354045 345.89407 
L 79.910077 345.468995 
M 68.539704 333.747596 
L 67.744136 332.860583 
L 67.604372 332.702942 
L 66.313016 331.231397 
L 65.975186 330.841898 
L 64.910808 329.602211 
L 64.346 328.936545 
M 388.554 328.936545 
L 387.989192 329.602211 
L 386.924814 330.841898 
L 386.586984 331.231397 
L 385.295628 332.702942 
L 385.155864 332.860583 
L 383.694635 334.489769 
L 383.666442 334.520845 
L 382.201508 336.118955 
L 382.037256 336.296125 
L 380.676947 337.748141 
L 380.40807 338.031955 
L 379.987525 338.471192 
M 368.300683 349.811238 
L 367.374583 350.641864 
L 367.216942 350.781628 
L 365.745397 352.072984 
L 365.355898 352.410814 
L 364.116211 353.475192 
L 363.450545 354.04 
M 64.346 54.935455 
L 64.910808 54.269789 
L 65.975186 53.030102 
L 66.313016 52.640603 
L 67.604372 51.169058 
L 67.744136 51.011417 
L 69.205365 49.382231 
L 69.233558 49.351155 
L 70.698492 47.753045 
L 70.862744 47.575875 
L 72.223053 46.123859 
L 72.49193 45.840045 
L 72.912475 45.400808 
M 84.599317 34.060762 
L 85.525417 33.230136 
L 85.683058 33.090372 
L 87.154603 31.799016 
L 87.544102 31.461186 
L 88.783789 30.396808 
L 89.449455 29.832 
M 363.450545 29.832 
L 364.116211 30.396808 
L 365.355898 31.461186 
L 365.745397 31.799016 
L 367.216942 33.090372 
L 367.374583 33.230136 
L 369.003769 34.691365 
L 369.034845 34.719558 
L 370.632955 36.184492 
L 370.810125 36.348744 
L 372.262141 37.709053 
L 372.545955 37.97793 
L 372.989923 38.403005 
M 384.360296 50.124404 
L 385.155864 51.011417 
L 385.295628 51.169058 
L 386.586984 52.640603 
L 386.924814 53.030102 
L 387.989192 54.269789 
L 388.554 54.935455 
" clip-path="url(#pe578deee9c)" style="fill: none; stroke: #a0da39"/>
    <path d="M 68.818082 346.701843 
L 68.026964 345.89407 
L 67.604372 345.457991 
L 66.459964 344.264884 
L 65.975186 343.754043 
L 64.92462 342.635698 
L 64.346 342.013053 
M 381.205975 349.577582 
L 380.40807 350.359036 
L 379.971991 350.781628 
L 378.778884 351.926036 
L 378.268043 352.410814 
L 377.149698 353.46138 
L 376.527053 354.04 
M 71.694025 34.294418 
L 72.49193 33.512964 
L 72.928009 33.090372 
L 74.121116 31.945964 
L 74.631957 31.461186 
L 75.750302 30.41062 
L 76.372947 29.832 
M 384.081918 37.170157 
L 384.873036 37.97793 
L 385.295628 38.414009 
L 386.440036 39.607116 
L 386.924814 40.117957 
L 387.97538 41.236302 
L 388.554 41.858947 
" clip-path="url(#pe578deee9c)" style="fill: none; stroke: #d0e11c"/>
    <path clip-path="url(#pe578deee9c)" style="fill: none; stroke: #fde725"/>
   </g>
   <g id="line2d_29">
    <defs>
     <path id="m98aed6169f" d="M 0 3 
C 0.795609 3 1.55874 2.683901 2.12132 2.12132 
C 2.683901 1.55874 3 0.795609 3 0 
C 3 -0.795609 2.683901 -1.55874 2.12132 -2.12132 
C 1.55874 -2.683901 0.795609 -3 0 -3 
C -0.795609 -3 -1.55874 -2.683901 -2.12132 -2.12132 
C -2.683901 -1.55874 -3 -0.795609 -3 0 
C -3 0.795609 -2.683901 1.55874 -2.12132 2.12132 
C -1.55874 2.683901 -0.795609 3 0 3 
z
" style="stroke: #ff0000"/>
    </defs>
    <g clip-path="url(#pe578deee9c)">
     <use xlink:href="#m98aed6169f" x="226.45" y="191.936" style="fill: #ff0000; stroke: #ff0000"/>
    </g>
   </g>
   <g id="line2d_30">
    <defs>
     <path id="m0f9a6c2a81" d="M 0 2.5 
C 0.663008 2.5 1.29895 2.236584 1.767767 1.767767 
C 2.236584 1.29895 2.5 0.663008 2.5 0 
C 2.5 -0.663008 2.236584 -1.29895 1.767767 -1.767767 
C 1.29895 -2.236584 0.663008 -2.5 0 -2.5 
C -0.663008 -2.5 -1.29895 -2.236584 -1.767767 -1.767767 
C -2.236584 -1.29895 -2.5 -0.663008 -2.5 0 
C -2.5 0.663008 -2.236584 1.29895 -1.767767 1.767767 
C -1.29895 2.236584 -0.663008 2.5 0 2.5 
z
" style="stroke: #0000ff"/>
    </defs>
    <g clip-path="url(#pe578deee9c)">
     <use xlink:href="#m0f9a6c2a81" x="280.484667" y="137.901333" style="fill: #0000ff; stroke: #0000ff"/>
    </g>
   </g>
   <g id="patch_3">
    <path d="M 64.346 354.04 
L 64.346 29.832 
" style="fill: none; stroke: #000000; stroke-width: 0.8; stroke-linejoin: miter; stroke-linecap: square"/>
   </g>
   <g id="patch_4">
    <path d="M 388.554 354.04 
L 388.554 29.832 
" style="fill: none; stroke: #000000; stroke-width: 0.8; stroke-linejoin: miter; stroke-linecap: square"/>
   </g>
   <g id="patch_5">
    <path d="M 64.346 354.04 
L 388.554 354.04 
" style="fill: none; stroke: #000000; stroke-width: 0.8; stroke-linejoin: miter; stroke-linecap: square"/>
   </g>
   <g id="patch_6">
    <path d="M 64.346 29.832 
L 388.554 29.832 
" style="fill: none; stroke: #000000; stroke-width: 0.8; stroke-linejoin: miter; stroke-linecap: square"/>
   </g>
   <g id="patch_7">
    <path d="M 244.463453 180.65928 
Q 236.304406 185.766979 229.282547 190.162779 
" style="fill: none; stroke: #ff0000; stroke-width: 1.2; stroke-linecap: round"/>
    <path d="M 233.289059 189.778252 
L 229.282547 190.162779 
L 231.378833 186.726853 
" style="fill: none; stroke: #ff0000; stroke-width: 1.2; stroke-linecap: round"/>
   </g>
   <g id="text_17">
    <!-- (0, 0) -->
    <g style="fill: #ff0000" transform="translate(242.6604 175.7256) scale(0.09 -0.09)">
     <defs>
      <path id="DejaVuSans-Bold-28" d="M 2413 -844 
L 1484 -844 
Q 1006 -72 778 623 
Q 550 1319 550 2003 
Q 550 2688 779 3389 
Q 1009 4091 1484 4856 
L 2413 4856 
Q 2013 4116 1813 3408 
Q 1613 2700 1613 2009 
Q 1613 1319 1811 609 
Q 2009 -100 2413 -844 
z
" transform="scale(0.015625)"/>
      <path id="DejaVuSans-Bold-30" d="M 2944 2338 
Q 2944 3213 2780 3570 
Q 2616 3928 2228 3928 
Q 1841 3928 1675 3570 
Q 1509 3213 1509 2338 
Q 1509 1453 1675 1090 
Q 1841 728 2228 728 
Q 2613 728 2778 1090 
Q 2944 1453 2944 2338 
z
M 4147 2328 
Q 4147 1169 3647 539 
Q 3147 -91 2228 -91 
Q 1306 -91 806 539 
Q 306 1169 306 2328 
Q 306 3491 806 4120 
Q 1306 4750 2228 4750 
Q 3147 4750 3647 4120 
Q 4147 3491 4147 2328 
z
" transform="scale(0.015625)"/>
      <path id="DejaVuSans-Bold-2c" d="M 653 1209 
L 1778 1209 
L 1778 256 
L 1006 -909 
L 341 -909 
L 653 256 
L 653 1209 
z
" transform="scale(0.015625)"/>
      <path id="DejaVuSans-Bold-20" transform="scale(0.015625)"/>
      <path id="DejaVuSans-Bold-29" d="M 513 -844 
Q 913 -100 1113 609 
Q 1313 1319 1313 2009 
Q 1313 2700 1113 3408 
Q 913 4116 513 4856 
L 1441 4856 
Q 1916 4091 2145 3389 
Q 2375 2688 2375 2003 
Q 2375 1319 2147 623 
Q 1919 -72 1441 -844 
L 513 -844 
z
" transform="scale(0.015625)"/>
     </defs>
     <use xlink:href="#DejaVuSans-Bold-28"/>
     <use xlink:href="#DejaVuSans-Bold-30" transform="translate(45.703125 0)"/>
     <use xlink:href="#DejaVuSans-Bold-2c" transform="translate(115.283203 0)"/>
     <use xlink:href="#DejaVuSans-Bold-20" transform="translate(153.271484 0)"/>
     <use xlink:href="#DejaVuSans-Bold-30" transform="translate(188.085938 0)"/>
     <use xlink:href="#DejaVuSans-Bold-29" transform="translate(257.666016 0)"/>
    </g>
   </g>
   <g id="text_18">
    <!-- (1, 1) -->
    <g style="fill: #0000ff" transform="translate(296.695067 121.690933) scale(0.08 -0.08)">
     <defs>
      <path id="DejaVuSans-28" d="M 1984 4856 
Q 1566 4138 1362 3434 
Q 1159 2731 1159 2009 
Q 1159 1288 1364 580 
Q 1569 -128 1984 -844 
L 1484 -844 
Q 1016 -109 783 600 
Q 550 1309 550 2009 
Q 550 2706 781 3412 
Q 1013 4119 1484 4856 
L 1984 4856 
z
" transform="scale(0.015625)"/>
      <path id="DejaVuSans-2c" d="M 750 794 
L 1409 794 
L 1409 256 
L 897 -744 
L 494 -744 
L 750 256 
L 750 794 
z
" transform="scale(0.015625)"/>
      <path id="DejaVuSans-20" transform="scale(0.015625)"/>
      <path id="DejaVuSans-29" d="M 513 4856 
L 1013 4856 
Q 1481 4119 1714 3412 
Q 1947 2706 1947 2009 
Q 1947 1309 1714 600 
Q 1481 -109 1013 -844 
L 513 -844 
Q 928 -128 1133 580 
Q 1338 1288 1338 2009 
Q 1338 2731 1133 3434 
Q 928 4138 513 4856 
z
" transform="scale(0.015625)"/>
     </defs>
     <use xlink:href="#DejaVuSans-28"/>
     <use xlink:href="#DejaVuSans-31" transform="translate(39.013672 0)"/>
     <use xlink:href="#DejaVuSans-2c" transform="translate(102.636719 0)"/>
     <use xlink:href="#DejaVuSans-20" transform="translate(134.423828 0)"/>
     <use xlink:href="#DejaVuSans-31" transform="translate(166.210938 0)"/>
     <use xlink:href="#DejaVuSans-29" transform="translate(229.833984 0)"/>
    </g>
   </g>
   <g id="patch_8">
    <path d="M 279.069489 139.316511 
Q 261.572726 156.813274 245.657102 172.728898 
" style="fill: none; stroke-dasharray: 7.4,3.2; stroke-dashoffset: 0; stroke: #0000ff; stroke-width: 2; stroke-linecap: round"/>
    <path d="M 249.899743 171.314684 
L 245.657102 172.728898 
L 247.071316 168.486257 
" style="fill: none; stroke-dasharray: 7.4,3.2; stroke-dashoffset: 0; stroke: #0000ff; stroke-width: 2; stroke-linecap: round"/>
   </g>
   <g id="text_19">
    <!-- -∇f -->
    <g style="fill: #0000ff" transform="translate(253.467333 154.111733) scale(0.08 -0.08)">
     <defs>
      <path id="DejaVuSans-Bold-2d" d="M 347 2297 
L 2309 2297 
L 2309 1388 
L 347 1388 
L 347 2297 
z
" transform="scale(0.015625)"/>
      <path id="DejaVuSans-Bold-2207" d="M 2228 1134 
L 3250 3803 
L 1209 3803 
L 2228 1134 
z
M 1759 0 
L 0 4603 
L 4459 4603 
L 2700 0 
L 1759 0 
z
" transform="scale(0.015625)"/>
      <path id="DejaVuSans-Bold-66" d="M 2841 4863 
L 2841 4128 
L 2222 4128 
Q 1984 4128 1890 4042 
Q 1797 3956 1797 3744 
L 1797 3500 
L 2753 3500 
L 2753 2700 
L 1797 2700 
L 1797 0 
L 678 0 
L 678 2700 
L 122 2700 
L 122 3500 
L 678 3500 
L 678 3744 
Q 678 4316 997 4589 
Q 1316 4863 1984 4863 
L 2841 4863 
z
" transform="scale(0.015625)"/>
     </defs>
     <use xlink:href="#DejaVuSans-Bold-2d"/>
     <use xlink:href="#DejaVuSans-Bold-2207" transform="translate(41.503906 0)"/>
     <use xlink:href="#DejaVuSans-Bold-66" transform="translate(111.181641 0)"/>
    </g>
   </g>
   <g id="text_20">
    <!-- Contour Plot of $f(x, y) = x^2 + y^2$ -->
    <g transform="translate(134.65 23.832) scale(0.12 -0.12)">
     <defs>
      <path id="DejaVuSans-43" d="M 4122 4306 
L 4122 3641 
Q 3803 3938 3442 4084 
Q 3081 4231 2675 4231 
Q 1875 4231 1450 3742 
Q 1025 3253 1025 2328 
Q 1025 1406 1450 917 
Q 1875 428 2675 428 
Q 3081 428 3442 575 
Q 3803 722 4122 1019 
L 4122 359 
Q 3791 134 3420 21 
Q 3050 -91 2638 -91 
Q 1578 -91 968 557 
Q 359 1206 359 2328 
Q 359 3453 968 4101 
Q 1578 4750 2638 4750 
Q 3056 4750 3426 4639 
Q 3797 4528 4122 4306 
z
" transform="scale(0.015625)"/>
      <path id="DejaVuSans-6f" d="M 1959 3097 
Q 1497 3097 1228 2736 
Q 959 2375 959 1747 
Q 959 1119 1226 758 
Q 1494 397 1959 397 
Q 2419 397 2687 759 
Q 2956 1122 2956 1747 
Q 2956 2369 2687 2733 
Q 2419 3097 1959 3097 
z
M 1959 3584 
Q 2709 3584 3137 3096 
Q 3566 2609 3566 1747 
Q 3566 888 3137 398 
Q 2709 -91 1959 -91 
Q 1206 -91 779 398 
Q 353 888 353 1747 
Q 353 2609 779 3096 
Q 1206 3584 1959 3584 
z
" transform="scale(0.015625)"/>
      <path id="DejaVuSans-6e" d="M 3513 2113 
L 3513 0 
L 2938 0 
L 2938 2094 
Q 2938 2591 2744 2837 
Q 2550 3084 2163 3084 
Q 1697 3084 1428 2787 
Q 1159 2491 1159 1978 
L 1159 0 
L 581 0 
L 581 3500 
L 1159 3500 
L 1159 2956 
Q 1366 3272 1645 3428 
Q 1925 3584 2291 3584 
Q 2894 3584 3203 3211 
Q 3513 2838 3513 2113 
z
" transform="scale(0.015625)"/>
      <path id="DejaVuSans-74" d="M 1172 4494 
L 1172 3500 
L 2356 3500 
L 2356 3053 
L 1172 3053 
L 1172 1153 
Q 1172 725 1289 603 
Q 1406 481 1766 481 
L 2356 481 
L 2356 0 
L 1766 0 
Q 1100 0 847 248 
Q 594 497 594 1153 
L 594 3053 
L 172 3053 
L 172 3500 
L 594 3500 
L 594 4494 
L 1172 4494 
z
" transform="scale(0.015625)"/>
      <path id="DejaVuSans-75" d="M 544 1381 
L 544 3500 
L 1119 3500 
L 1119 1403 
Q 1119 906 1312 657 
Q 1506 409 1894 409 
Q 2359 409 2629 706 
Q 2900 1003 2900 1516 
L 2900 3500 
L 3475 3500 
L 3475 0 
L 2900 0 
L 2900 538 
Q 2691 219 2414 64 
Q 2138 -91 1772 -91 
Q 1169 -91 856 284 
Q 544 659 544 1381 
z
M 1991 3584 
L 1991 3584 
z
" transform="scale(0.015625)"/>
      <path id="DejaVuSans-72" d="M 2631 2963 
Q 2534 3019 2420 3045 
Q 2306 3072 2169 3072 
Q 1681 3072 1420 2755 
Q 1159 2438 1159 1844 
L 1159 0 
L 581 0 
L 581 3500 
L 1159 3500 
L 1159 2956 
Q 1341 3275 1631 3429 
Q 1922 3584 2338 3584 
Q 2397 3584 2469 3576 
Q 2541 3569 2628 3553 
L 2631 2963 
z
" transform="scale(0.015625)"/>
      <path id="DejaVuSans-50" d="M 1259 4147 
L 1259 2394 
L 2053 2394 
Q 2494 2394 2734 2622 
Q 2975 2850 2975 3272 
Q 2975 3691 2734 3919 
Q 2494 4147 2053 4147 
L 1259 4147 
z
M 628 4666 
L 2053 4666 
Q 2838 4666 3239 4311 
Q 3641 3956 3641 3272 
Q 3641 2581 3239 2228 
Q 2838 1875 2053 1875 
L 1259 1875 
L 1259 0 
L 628 0 
L 628 4666 
z
" transform="scale(0.015625)"/>
      <path id="DejaVuSans-6c" d="M 603 4863 
L 1178 4863 
L 1178 0 
L 603 0 
L 603 4863 
z
" transform="scale(0.015625)"/>
      <path id="DejaVuSans-66" d="M 2375 4863 
L 2375 4384 
L 1825 4384 
Q 1516 4384 1395 4259 
Q 1275 4134 1275 3809 
L 1275 3500 
L 2222 3500 
L 2222 3053 
L 1275 3053 
L 1275 0 
L 697 0 
L 697 3053 
L 147 3053 
L 147 3500 
L 697 3500 
L 697 3744 
Q 697 4328 969 4595 
Q 1241 4863 1831 4863 
L 2375 4863 
z
" transform="scale(0.015625)"/>
      <path id="DejaVuSans-Oblique-66" d="M 3059 4863 
L 2969 4384 
L 2419 4384 
Q 2106 4384 1964 4261 
Q 1822 4138 1753 3809 
L 1691 3500 
L 2638 3500 
L 2553 3053 
L 1606 3053 
L 1013 0 
L 434 0 
L 1031 3053 
L 481 3053 
L 563 3500 
L 1113 3500 
L 1159 3744 
Q 1278 4363 1576 4613 
Q 1875 4863 2516 4863 
L 3059 4863 
z
" transform="scale(0.015625)"/>
      <path id="DejaVuSans-Oblique-78" d="M 3841 3500 
L 2234 1784 
L 3219 0 
L 2559 0 
L 1819 1388 
L 531 0 
L -166 0 
L 1556 1844 
L 641 3500 
L 1300 3500 
L 1972 2234 
L 3144 3500 
L 3841 3500 
z
" transform="scale(0.015625)"/>
      <path id="DejaVuSans-Oblique-79" d="M 1588 -325 
Q 1188 -997 936 -1164 
Q 684 -1331 294 -1331 
L -159 -1331 
L -63 -850 
L 269 -850 
Q 509 -850 678 -719 
Q 847 -588 1056 -206 
L 1234 128 
L 459 3500 
L 1069 3500 
L 1650 819 
L 3256 3500 
L 3859 3500 
L 1588 -325 
z
" transform="scale(0.015625)"/>
      <path id="DejaVuSans-3d" d="M 678 2906 
L 4684 2906 
L 4684 2381 
L 678 2381 
L 678 2906 
z
M 678 1631 
L 4684 1631 
L 4684 1100 
L 678 1100 
L 678 1631 
z
" transform="scale(0.015625)"/>
      <path id="DejaVuSans-2b" d="M 2944 4013 
L 2944 2272 
L 4684 2272 
L 4684 1741 
L 2944 1741 
L 2944 0 
L 2419 0 
L 2419 1741 
L 678 1741 
L 678 2272 
L 2419 2272 
L 2419 4013 
L 2944 4013 
z
" transform="scale(0.015625)"/>
     </defs>
     <use xlink:href="#DejaVuSans-43" transform="translate(0 0.765625)"/>
     <use xlink:href="#DejaVuSans-6f" transform="translate(69.824219 0.765625)"/>
     <use xlink:href="#DejaVuSans-6e" transform="translate(131.005859 0.765625)"/>
     <use xlink:href="#DejaVuSans-74" transform="translate(194.384766 0.765625)"/>
     <use xlink:href="#DejaVuSans-6f" transform="translate(233.59375 0.765625)"/>
     <use xlink:href="#DejaVuSans-75" transform="translate(294.775391 0.765625)"/>
     <use xlink:href="#DejaVuSans-72" transform="translate(358.154297 0.765625)"/>
     <use xlink:href="#DejaVuSans-20" transform="translate(399.267578 0.765625)"/>
     <use xlink:href="#DejaVuSans-50" transform="translate(431.054688 0.765625)"/>
     <use xlink:href="#DejaVuSans-6c" transform="translate(491.357422 0.765625)"/>
     <use xlink:href="#DejaVuSans-6f" transform="translate(519.140625 0.765625)"/>
     <use xlink:href="#DejaVuSans-74" transform="translate(580.322266 0.765625)"/>
     <use xlink:href="#DejaVuSans-20" transform="translate(619.53125 0.765625)"/>
     <use xlink:href="#DejaVuSans-6f" transform="translate(651.318359 0.765625)"/>
     <use xlink:href="#DejaVuSans-66" transform="translate(712.5 0.765625)"/>
     <use xlink:href="#DejaVuSans-20" transform="translate(747.705078 0.765625)"/>
     <use xlink:href="#DejaVuSans-Oblique-66" transform="translate(779.492188 0.765625)"/>
     <use xlink:href="#DejaVuSans-28" transform="translate(814.697266 0.765625)"/>
     <use xlink:href="#DejaVuSans-Oblique-78" transform="translate(853.710938 0.765625)"/>
     <use xlink:href="#DejaVuSans-2c" transform="translate(912.890625 0.765625)"/>
     <use xlink:href="#DejaVuSans-Oblique-79" transform="translate(964.160156 0.765625)"/>
     <use xlink:href="#DejaVuSans-29" transform="translate(1023.339844 0.765625)"/>
     <use xlink:href="#DejaVuSans-3d" transform="translate(1081.835938 0.765625)"/>
     <use xlink:href="#DejaVuSans-Oblique-78" transform="translate(1185.107422 0.765625)"/>
     <use xlink:href="#DejaVuSans-32" transform="translate(1248.753255 39.046875) scale(0.7)"/>
     <use xlink:href="#DejaVuSans-2b" transform="translate(1315.506185 0.765625)"/>
     <use xlink:href="#DejaVuSans-Oblique-79" transform="translate(1418.777669 0.765625)"/>
     <use xlink:href="#DejaVuSans-32" transform="translate(1482.423503 39.046875) scale(0.7)"/>
    </g>
   </g>
   <g id="text_21">
    <g clip-path="url(#pe578deee9c)">
     <!-- 1 -->
     <g style="fill: #481b6d" transform="translate(246.981453 251.67573) rotate(-19.317027) scale(0.07 -0.07)">
      <use xlink:href="#DejaVuSans-31"/>
     </g>
    </g>
   </g>
   <g id="text_22">
    <g clip-path="url(#pe578deee9c)">
     <!-- 3 -->
     <g style="fill: #46327e" transform="translate(196.401608 112.631024) rotate(-17.621678) scale(0.07 -0.07)">
      <use xlink:href="#DejaVuSans-33"/>
     </g>
    </g>
   </g>
   <g id="text_23">
    <g clip-path="url(#pe578deee9c)">
     <!-- 4 -->
     <g style="fill: #3f4788" transform="translate(190.361846 293.868668) rotate(-343.212876) scale(0.07 -0.07)">
      <defs>
       <path id="DejaVuSans-34" d="M 2419 4116 
L 825 1625 
L 2419 1625 
L 2419 4116 
z
M 2253 4666 
L 3047 4666 
L 3047 1625 
L 3713 1625 
L 3713 1100 
L 3047 1100 
L 3047 0 
L 2419 0 
L 2419 1100 
L 313 1100 
L 313 1709 
L 2253 4666 
z
" transform="scale(0.015625)"/>
      </defs>
      <use xlink:href="#DejaVuSans-34"/>
     </g>
    </g>
   </g>
   <g id="text_24">
    <g clip-path="url(#pe578deee9c)">
     <!-- 5 -->
     <g style="fill: #365c8d" transform="translate(273.351763 80.882488) rotate(-337.993465) scale(0.07 -0.07)">
      <defs>
       <path id="DejaVuSans-35" d="M 691 4666 
L 3169 4666 
L 3169 4134 
L 1269 4134 
L 1269 2991 
Q 1406 3038 1543 3061 
Q 1681 3084 1819 3084 
Q 2600 3084 3056 2656 
Q 3513 2228 3513 1497 
Q 3513 744 3044 326 
Q 2575 -91 1722 -91 
Q 1428 -91 1123 -41 
Q 819 9 494 109 
L 494 744 
Q 775 591 1075 516 
Q 1375 441 1709 441 
Q 2250 441 2565 725 
Q 2881 1009 2881 1497 
Q 2881 1984 2565 2268 
Q 2250 2553 1709 2553 
Q 1456 2553 1204 2497 
Q 953 2441 691 2322 
L 691 4666 
z
" transform="scale(0.015625)"/>
      </defs>
      <use xlink:href="#DejaVuSans-35"/>
     </g>
    </g>
   </g>
   <g id="text_25">
    <g clip-path="url(#pe578deee9c)">
     <!-- 6 -->
     <g style="fill: #2e6e8e" transform="translate(322.916407 291.799889) rotate(-42.294624) scale(0.07 -0.07)">
      <defs>
       <path id="DejaVuSans-36" d="M 2113 2584 
Q 1688 2584 1439 2293 
Q 1191 2003 1191 1497 
Q 1191 994 1439 701 
Q 1688 409 2113 409 
Q 2538 409 2786 701 
Q 3034 994 3034 1497 
Q 3034 2003 2786 2293 
Q 2538 2584 2113 2584 
z
M 3366 4563 
L 3366 3988 
Q 3128 4100 2886 4159 
Q 2644 4219 2406 4219 
Q 1781 4219 1451 3797 
Q 1122 3375 1075 2522 
Q 1259 2794 1537 2939 
Q 1816 3084 2150 3084 
Q 2853 3084 3261 2657 
Q 3669 2231 3669 1497 
Q 3669 778 3244 343 
Q 2819 -91 2113 -91 
Q 1303 -91 875 529 
Q 447 1150 447 2328 
Q 447 3434 972 4092 
Q 1497 4750 2381 4750 
Q 2619 4750 2861 4703 
Q 3103 4656 3366 4563 
z
" transform="scale(0.015625)"/>
      </defs>
      <use xlink:href="#DejaVuSans-36"/>
     </g>
    </g>
   </g>
   <g id="text_26">
    <g clip-path="url(#pe578deee9c)">
     <!-- 8 -->
     <g style="fill: #277f8e" transform="translate(277.919938 334.912848) rotate(-18.95714) scale(0.07 -0.07)">
      <defs>
       <path id="DejaVuSans-38" d="M 2034 2216 
Q 1584 2216 1326 1975 
Q 1069 1734 1069 1313 
Q 1069 891 1326 650 
Q 1584 409 2034 409 
Q 2484 409 2743 651 
Q 3003 894 3003 1313 
Q 3003 1734 2745 1975 
Q 2488 2216 2034 2216 
z
M 1403 2484 
Q 997 2584 770 2862 
Q 544 3141 544 3541 
Q 544 4100 942 4425 
Q 1341 4750 2034 4750 
Q 2731 4750 3128 4425 
Q 3525 4100 3525 3541 
Q 3525 3141 3298 2862 
Q 3072 2584 2669 2484 
Q 3125 2378 3379 2068 
Q 3634 1759 3634 1313 
Q 3634 634 3220 271 
Q 2806 -91 2034 -91 
Q 1263 -91 848 271 
Q 434 634 434 1313 
Q 434 1759 690 2068 
Q 947 2378 1403 2484 
z
M 1172 3481 
Q 1172 3119 1398 2916 
Q 1625 2713 2034 2713 
Q 2441 2713 2670 2916 
Q 2900 3119 2900 3481 
Q 2900 3844 2670 4047 
Q 2441 4250 2034 4250 
Q 1625 4250 1398 4047 
Q 1172 3844 1172 3481 
z
" transform="scale(0.015625)"/>
      </defs>
      <use xlink:href="#DejaVuSans-38"/>
     </g>
    </g>
   </g>
   <g id="text_27">
    <g clip-path="url(#pe578deee9c)">
     <!-- 9 -->
     <g style="fill: #21918c" transform="translate(329.290596 319.618831) rotate(-37.065727) scale(0.07 -0.07)">
      <defs>
       <path id="DejaVuSans-39" d="M 703 97 
L 703 672 
Q 941 559 1184 500 
Q 1428 441 1663 441 
Q 2288 441 2617 861 
Q 2947 1281 2994 2138 
Q 2813 1869 2534 1725 
Q 2256 1581 1919 1581 
Q 1219 1581 811 2004 
Q 403 2428 403 3163 
Q 403 3881 828 4315 
Q 1253 4750 1959 4750 
Q 2769 4750 3195 4129 
Q 3622 3509 3622 2328 
Q 3622 1225 3098 567 
Q 2575 -91 1691 -91 
Q 1453 -91 1209 -44 
Q 966 3 703 97 
z
M 1959 2075 
Q 2384 2075 2632 2365 
Q 2881 2656 2881 3163 
Q 2881 3666 2632 3958 
Q 2384 4250 1959 4250 
Q 1534 4250 1286 3958 
Q 1038 3666 1038 3163 
Q 1038 2656 1286 2365 
Q 1534 2075 1959 2075 
z
" transform="scale(0.015625)"/>
      </defs>
      <use xlink:href="#DejaVuSans-39"/>
     </g>
    </g>
   </g>
   <g id="text_28">
    <g clip-path="url(#pe578deee9c)">
     <!-- 10 -->
     <g style="fill: #1fa187" transform="translate(127.952309 337.148046) rotate(-329.663079) scale(0.07 -0.07)">
      <use xlink:href="#DejaVuSans-31"/>
      <use xlink:href="#DejaVuSans-30" transform="translate(63.623047 0)"/>
     </g>
    </g>
   </g>
   <g id="text_29">
    <g clip-path="url(#pe578deee9c)">
     <!-- 10 -->
     <g style="fill: #1fa187" transform="translate(371.255549 290.366961) rotate(-54.79975) scale(0.07 -0.07)">
      <use xlink:href="#DejaVuSans-31"/>
      <use xlink:href="#DejaVuSans-30" transform="translate(63.623047 0)"/>
     </g>
    </g>
   </g>
   <g id="text_30">
    <g clip-path="url(#pe578deee9c)">
     <!-- 10 -->
     <g style="fill: #1fa187" transform="translate(79.666571 103.010579) rotate(-54.79975) scale(0.07 -0.07)">
      <use xlink:href="#DejaVuSans-31"/>
      <use xlink:href="#DejaVuSans-30" transform="translate(63.623047 0)"/>
     </g>
    </g>
   </g>
   <g id="text_31">
    <g clip-path="url(#pe578deee9c)">
     <!-- 10 -->
     <g style="fill: #1fa187" transform="translate(315.308691 45.559068) rotate(-329.663079) scale(0.07 -0.07)">
      <use xlink:href="#DejaVuSans-31"/>
      <use xlink:href="#DejaVuSans-30" transform="translate(63.623047 0)"/>
     </g>
    </g>
   </g>
   <g id="text_32">
    <g clip-path="url(#pe578deee9c)">
     <!-- 12 -->
     <g style="fill: #2db27d" transform="translate(85.900006 313.755138) rotate(-314.9317) scale(0.07 -0.07)">
      <use xlink:href="#DejaVuSans-31"/>
      <use xlink:href="#DejaVuSans-32" transform="translate(63.623047 0)"/>
     </g>
    </g>
   </g>
   <g id="text_33">
    <g clip-path="url(#pe578deee9c)">
     <!-- 12 -->
     <g style="fill: #2db27d" transform="translate(347.858286 332.300633) rotate(-39.610068) scale(0.07 -0.07)">
      <use xlink:href="#DejaVuSans-31"/>
      <use xlink:href="#DejaVuSans-32" transform="translate(63.623047 0)"/>
     </g>
    </g>
   </g>
   <g id="text_34">
    <g clip-path="url(#pe578deee9c)">
     <!-- 12 -->
     <g style="fill: #2db27d" transform="translate(100.642336 60.226583) rotate(-39.610068) scale(0.07 -0.07)">
      <use xlink:href="#DejaVuSans-31"/>
      <use xlink:href="#DejaVuSans-32" transform="translate(63.623047 0)"/>
     </g>
    </g>
   </g>
   <g id="text_35">
    <g clip-path="url(#pe578deee9c)">
     <!-- 12 -->
     <g style="fill: #2db27d" transform="translate(357.974057 66.539188) rotate(-314.9317) scale(0.07 -0.07)">
      <use xlink:href="#DejaVuSans-31"/>
      <use xlink:href="#DejaVuSans-32" transform="translate(63.623047 0)"/>
     </g>
    </g>
   </g>
   <g id="text_36">
    <g clip-path="url(#pe578deee9c)">
     <!-- 13 -->
     <g style="fill: #4ac16d" transform="translate(110.059205 349.53774) rotate(-327.312655) scale(0.07 -0.07)">
      <use xlink:href="#DejaVuSans-31"/>
      <use xlink:href="#DejaVuSans-33" transform="translate(63.623047 0)"/>
     </g>
    </g>
   </g>
   <g id="text_37">
    <g clip-path="url(#pe578deee9c)">
     <!-- 13 -->
     <g style="fill: #4ac16d" transform="translate(383.634409 308.239932) rotate(-52.279952) scale(0.07 -0.07)">
      <use xlink:href="#DejaVuSans-31"/>
      <use xlink:href="#DejaVuSans-33" transform="translate(63.623047 0)"/>
     </g>
    </g>
   </g>
   <g id="text_38">
    <g clip-path="url(#pe578deee9c)">
     <!-- 13 -->
     <g style="fill: #4ac16d" transform="translate(66.871717 85.04146) rotate(-52.279952) scale(0.07 -0.07)">
      <use xlink:href="#DejaVuSans-31"/>
      <use xlink:href="#DejaVuSans-33" transform="translate(63.623047 0)"/>
     </g>
    </g>
   </g>
   <g id="text_39">
    <g clip-path="url(#pe578deee9c)">
     <!-- 13 -->
     <g style="fill: #4ac16d" transform="translate(333.257677 32.775048) rotate(-327.312655) scale(0.07 -0.07)">
      <use xlink:href="#DejaVuSans-31"/>
      <use xlink:href="#DejaVuSans-33" transform="translate(63.623047 0)"/>
     </g>
    </g>
   </g>
   <g id="text_40">
    <g clip-path="url(#pe578deee9c)">
     <!-- 14 -->
     <g style="fill: #73d056" transform="translate(64.819453 318.662783) rotate(-311.958398) scale(0.07 -0.07)">
      <use xlink:href="#DejaVuSans-31"/>
      <use xlink:href="#DejaVuSans-34" transform="translate(63.623047 0)"/>
     </g>
    </g>
   </g>
   <g id="text_41">
    <g clip-path="url(#pe578deee9c)">
     <!-- 14 -->
     <g style="fill: #73d056" transform="translate(352.781985 353.363507) rotate(-36.716893) scale(0.07 -0.07)">
      <use xlink:href="#DejaVuSans-31"/>
      <use xlink:href="#DejaVuSans-34" transform="translate(63.623047 0)"/>
     </g>
    </g>
   </g>
   <g id="text_42">
    <g clip-path="url(#pe578deee9c)">
     <!-- 14 -->
     <g style="fill: #73d056" transform="translate(95.287382 38.930623) rotate(-36.716893) scale(0.07 -0.07)">
      <use xlink:href="#DejaVuSans-31"/>
      <use xlink:href="#DejaVuSans-34" transform="translate(63.623047 0)"/>
     </g>
    </g>
   </g>
   <g id="text_43">
    <g clip-path="url(#pe578deee9c)">
     <!-- 14 -->
     <g style="fill: #73d056" transform="translate(379.252337 61.168179) rotate(-311.958398) scale(0.07 -0.07)">
      <use xlink:href="#DejaVuSans-31"/>
      <use xlink:href="#DejaVuSans-34" transform="translate(63.623047 0)"/>
     </g>
    </g>
   </g>
   <g id="text_44">
    <g clip-path="url(#pe578deee9c)">
     <!-- 15 -->
     <g style="fill: #a0da39" transform="translate(69.551997 338.089519) rotate(-316.807996) scale(0.07 -0.07)">
      <use xlink:href="#DejaVuSans-31"/>
      <use xlink:href="#DejaVuSans-35" transform="translate(63.623047 0)"/>
     </g>
    </g>
   </g>
   <g id="text_45">
    <g clip-path="url(#pe578deee9c)">
     <!-- 15 -->
     <g style="fill: #a0da39" transform="translate(372.185095 348.661387) rotate(-41.463899) scale(0.07 -0.07)">
      <use xlink:href="#DejaVuSans-31"/>
      <use xlink:href="#DejaVuSans-35" transform="translate(63.623047 0)"/>
     </g>
    </g>
   </g>
   <g id="text_46">
    <g clip-path="url(#pe578deee9c)">
     <!-- 15 -->
     <g style="fill: #a0da39" transform="translate(76.597825 44.003618) rotate(-41.463899) scale(0.07 -0.07)">
      <use xlink:href="#DejaVuSans-31"/>
      <use xlink:href="#DejaVuSans-35" transform="translate(63.623047 0)"/>
     </g>
    </g>
   </g>
   <g id="text_47">
    <g clip-path="url(#pe578deee9c)">
     <!-- 15 -->
     <g style="fill: #a0da39" transform="translate(374.209766 42.50225) rotate(-316.807996) scale(0.07 -0.07)">
      <use xlink:href="#DejaVuSans-31"/>
      <use xlink:href="#DejaVuSans-35" transform="translate(63.623047 0)"/>
     </g>
    </g>
   </g>
   <g id="text_48">
    <g clip-path="url(#pe578deee9c)">
     <!-- 17 -->
     <g style="fill: #d0e11c" transform="translate(70.004065 350.944718) rotate(-318.975955) scale(0.07 -0.07)">
      <defs>
       <path id="DejaVuSans-37" d="M 525 4666 
L 3525 4666 
L 3525 4397 
L 1831 0 
L 1172 0 
L 2766 4134 
L 525 4134 
L 525 4666 
z
" transform="scale(0.015625)"/>
      </defs>
      <use xlink:href="#DejaVuSans-31"/>
      <use xlink:href="#DejaVuSans-37" transform="translate(63.623047 0)"/>
     </g>
    </g>
   </g>
   <g id="text_49">
    <g clip-path="url(#pe578deee9c)">
     <!-- 17 -->
     <g style="fill: #d0e11c" transform="translate(385.034039 348.225262) rotate(-43.631555) scale(0.07 -0.07)">
      <use xlink:href="#DejaVuSans-31"/>
      <use xlink:href="#DejaVuSans-37" transform="translate(63.623047 0)"/>
     </g>
    </g>
   </g>
   <g id="text_50">
    <g clip-path="url(#pe578deee9c)">
     <!-- 17 -->
     <g style="fill: #d0e11c" transform="translate(64.084411 44.589175) rotate(-43.631555) scale(0.07 -0.07)">
      <use xlink:href="#DejaVuSans-31"/>
      <use xlink:href="#DejaVuSans-37" transform="translate(63.623047 0)"/>
     </g>
    </g>
   </g>
   <g id="text_51">
    <g clip-path="url(#pe578deee9c)">
     <!-- 17 -->
     <g style="fill: #d0e11c" transform="translate(373.640151 29.995089) rotate(-318.975955) scale(0.07 -0.07)">
      <use xlink:href="#DejaVuSans-31"/>
      <use xlink:href="#DejaVuSans-37" transform="translate(63.623047 0)"/>
     </g>
    </g>
   </g>
   <g id="legend_1">
    <g id="patch_9">
     <path d="M 296.2315 199.00725 
L 382.954 199.00725 
Q 384.554 199.00725 384.554 197.40725 
L 384.554 186.46475 
Q 384.554 184.86475 382.954 184.86475 
L 296.2315 184.86475 
Q 294.6315 184.86475 294.6315 186.46475 
L 294.6315 197.40725 
Q 294.6315 199.00725 296.2315 199.00725 
z
" style="fill: #ffffff; opacity: 0.8; stroke: #cccccc; stroke-linejoin: miter"/>
    </g>
    <g id="line2d_31">
     <g>
      <use xlink:href="#m98aed6169f" x="305.8315" y="191.3435" style="fill: #ff0000; stroke: #ff0000"/>
     </g>
    </g>
    <g id="text_52">
     <!-- Minimum (0, 0) -->
     <g transform="translate(320.2315 194.1435) scale(0.08 -0.08)">
      <defs>
       <path id="DejaVuSans-4d" d="M 628 4666 
L 1569 4666 
L 2759 1491 
L 3956 4666 
L 4897 4666 
L 4897 0 
L 4281 0 
L 4281 4097 
L 3078 897 
L 2444 897 
L 1241 4097 
L 1241 0 
L 628 0 
L 628 4666 
z
" transform="scale(0.015625)"/>
       <path id="DejaVuSans-69" d="M 603 3500 
L 1178 3500 
L 1178 0 
L 603 0 
L 603 3500 
z
M 603 4863 
L 1178 4863 
L 1178 4134 
L 603 4134 
L 603 4863 
z
" transform="scale(0.015625)"/>
       <path id="DejaVuSans-6d" d="M 3328 2828 
Q 3544 3216 3844 3400 
Q 4144 3584 4550 3584 
Q 5097 3584 5394 3201 
Q 5691 2819 5691 2113 
L 5691 0 
L 5113 0 
L 5113 2094 
Q 5113 2597 4934 2840 
Q 4756 3084 4391 3084 
Q 3944 3084 3684 2787 
Q 3425 2491 3425 1978 
L 3425 0 
L 2847 0 
L 2847 2094 
Q 2847 2600 2669 2842 
Q 2491 3084 2119 3084 
Q 1678 3084 1418 2786 
Q 1159 2488 1159 1978 
L 1159 0 
L 581 0 
L 581 3500 
L 1159 3500 
L 1159 2956 
Q 1356 3278 1631 3431 
Q 1906 3584 2284 3584 
Q 2666 3584 2933 3390 
Q 3200 3197 3328 2828 
z
" transform="scale(0.015625)"/>
      </defs>
      <use xlink:href="#DejaVuSans-4d"/>
      <use xlink:href="#DejaVuSans-69" transform="translate(86.279297 0)"/>
      <use xlink:href="#DejaVuSans-6e" transform="translate(114.0625 0)"/>
      <use xlink:href="#DejaVuSans-69" transform="translate(177.441406 0)"/>
      <use xlink:href="#DejaVuSans-6d" transform="translate(205.224609 0)"/>
      <use xlink:href="#DejaVuSans-75" transform="translate(302.636719 0)"/>
      <use xlink:href="#DejaVuSans-6d" transform="translate(366.015625 0)"/>
      <use xlink:href="#DejaVuSans-20" transform="translate(463.427734 0)"/>
      <use xlink:href="#DejaVuSans-28" transform="translate(495.214844 0)"/>
      <use xlink:href="#DejaVuSans-30" transform="translate(534.228516 0)"/>
      <use xlink:href="#DejaVuSans-2c" transform="translate(597.851562 0)"/>
      <use xlink:href="#DejaVuSans-20" transform="translate(629.638672 0)"/>
      <use xlink:href="#DejaVuSans-30" transform="translate(661.425781 0)"/>
      <use xlink:href="#DejaVuSans-29" transform="translate(725.048828 0)"/>
     </g>
    </g>
   </g>
  </g>
 </g>
 <defs>
  <clipPath id="pe578deee9c">
   <rect x="64.346" y="29.832" width="324.208" height="324.208"/>
  </clipPath>
 </defs>
</svg>
